<?xml version="1.0" encoding="utf-8"?>
<!-- Generator: Adobe Illustrator 22.0.1, SVG Export Plug-In . SVG Version: 6.00 Build 0)  -->
<svg version="1.1" id="Layer_1" xmlns="http://www.w3.org/2000/svg" xmlns:xlink="http://www.w3.org/1999/xlink" x="0px" y="0px"
	 viewBox="0 0 2304 1152" style="enable-background:new 0 0 2304 1152;" xml:space="preserve">
<style type="text/css">
	.st0{fill:none;stroke:#FF0000;stroke-width:1.000000e-03;stroke-miterlimit:10;}
	.st1{stroke:#000000;stroke-width:1.4224;stroke-miterlimit:10;}
	.st2{stroke:#000000;stroke-width:3.556;stroke-miterlimit:10;}
	.st3{stroke:#0000FF;stroke-width:1.000000e-03;stroke-miterlimit:10;}
</style>
<g>
	<line class="st0" x1="1329.5" y1="8.6" x2="1761.5" y2="8.6"/>
	<line class="st0" x1="1761.5" y1="386.6" x2="1329.5" y2="386.6"/>
	<line class="st0" x1="1329.5" y1="8.6" x2="1329.5" y2="386.6"/>
</g>
<polygon class="st0" points="668.6,24.6 658.8,24.6 637.8,24.6 637.8,12.6 607.1,12.6 607.1,24.6 587.6,24.6 587.6,12.6 568.2,12.6 
	568.2,24.6 548.6,24.6 548.6,12.6 529.2,12.6 529.2,24.6 509.8,24.6 509.8,12.6 490.3,12.6 490.3,24.6 470.9,24.6 470.9,12.6 
	451.5,12.6 451.5,24.6 432.1,24.6 432.1,12.6 412.6,12.6 412.6,24.6 393.2,24.6 393.2,12.6 373.8,12.6 373.8,24.6 354.3,24.6 
	354.3,12.6 334.9,12.6 334.9,24.6 315.5,24.6 315.5,12.6 295.9,12.6 295.9,24.6 276.5,24.6 276.5,12.6 257.1,12.6 257.1,24.6 
	237.6,24.6 237.6,12.6 218.2,12.6 218.2,24.6 198.8,24.6 198.8,12.6 179.3,12.6 179.3,24.6 159.9,24.6 159.9,12.6 140.5,12.6 
	140.5,24.6 121,24.6 121,12.6 101.6,12.6 101.6,24.6 82.2,24.6 82.2,12.6 51.3,12.6 51.3,24.6 20.6,24.6 20.5,378.4 30.3,378.4 
	51.3,378.4 51.3,390.6 82,390.6 82,378.4 101.5,378.4 101.5,390.6 120.9,390.6 120.9,378.4 140.5,378.4 140.5,390.6 159.9,390.6 
	159.9,378.4 179.3,378.4 179.3,390.6 198.8,390.6 198.8,378.4 218.2,378.4 218.2,390.6 237.6,390.6 237.6,378.4 257,378.4 
	257,390.6 276.5,390.6 276.5,378.4 295.9,378.4 295.9,390.6 315.3,390.6 315.3,378.4 334.8,378.4 334.8,390.6 354.2,390.6 
	354.2,378.4 373.6,378.4 373.6,390.6 393.2,390.6 393.2,378.4 412.6,378.4 412.6,390.6 432,390.6 432,378.4 451.5,378.4 
	451.5,390.6 470.9,390.6 470.9,378.4 490.3,378.4 490.3,390.6 509.8,390.6 509.8,378.4 529.2,378.4 529.2,390.6 548.6,390.6 
	548.6,378.4 568.1,378.4 568.1,390.6 587.5,390.6 587.5,378.4 606.9,378.4 606.9,390.6 637.8,390.6 637.8,378.4 668.5,378.4 "/>
<g>
	<g>
		<g id="_Group_">
			<g id="_Group_2">
				<g id="_Group_3">
					<path id="_Path_" class="st1" d="M172,320.3l2.6-1.5l0,0l-0.1-0.1l-0.2-0.2c0,0,0,0,0-0.1l-0.1-0.1l-0.1-0.1
						c-0.1-0.1-0.2-0.2-0.3-0.3l-0.1-0.2l0,0l0,0l-0.1-0.1l-0.2-0.2c-0.1-0.1-0.1-0.1-0.2-0.2c-0.1-0.1-0.3-0.2-0.4-0.3l-0.1-0.1
						l-0.1-0.1l-0.3-0.1l-0.4-0.2l-0.2-0.1l0,0h-0.1h-0.1c-0.1,0-0.1,0-0.2-0.1l-0.2-0.1c-0.1,0-0.2-0.1-0.3-0.1h-0.1h-0.1h-0.2
						l-2.4,1.9h0.2h0.1h0.1c0.1,0,0.2,0,0.3,0.1c0.6,0.1,1.1,0.4,1.5,0.7c0.5,0.3,0.9,0.7,1.3,1.2
						C171.7,320.1,171.8,320.2,172,320.3L172,320.3L172,320.3z"/>
					<path id="_Path_2" class="st1" d="M175.4,326.8l2.5-0.9c0,0-0.1-0.3-0.3-0.8c-0.1-0.2-0.2-0.5-0.3-0.8s-0.2-0.6-0.3-0.9
						l-0.2-0.5c0-0.1-0.1-0.2-0.1-0.2l-0.1-0.2l-0.1-0.2c0-0.1-0.1-0.1-0.1-0.2l-0.2-0.4l-0.3-0.5c0-0.1-0.1-0.1-0.1-0.2v-0.1
						l-2.6,1.4l0,0c0,0,0,0.1,0.1,0.1l0.3,0.5c0.1,0.2,0.2,0.5,0.3,0.7c0.1,0.3,0.3,0.5,0.4,0.8c0.3,0.6,0.5,1.1,0.7,1.6
						C175.2,326.6,175.4,326.8,175.4,326.8z"/>
					<path id="_Path_3" class="st1" d="M177.7,334.1l2.1-0.5c0,0-0.2-1.3-0.5-2.6c-0.1-0.6-0.3-1.3-0.4-1.8l-0.2-0.6l-0.1-0.2
						l-2.4,0.7l0.1,0.2l0.2,0.5c0.1,0.5,0.3,1.1,0.5,1.7C177.4,332.8,177.7,334.1,177.7,334.1z"/>
					<path id="_Path_4_1_" class="st1" d="M179.4,341.4l1.7-0.3v-0.2l-0.1-0.6c-0.1-0.5-0.1-1.1-0.2-1.8l-0.1-0.9l-0.1-0.8l-0.1-0.8
						l-2,0.4l0.2,0.8l0.2,0.8l0.2,0.9c0.1,0.6,1,2.6,1.1,3"/>
					<path id="_Path_5" class="st1" d="M180.6,349.1l1.2-0.1c0,0-0.1-1.3-0.2-2.6c-0.1-0.6-0.1-1.3-0.2-1.8l-0.1-0.6v-0.2l-1.5,0.2
						v0.2l0.1,0.6c0.1,0.5,0.2,1.1,0.3,1.7C180.4,347.8,180.6,349.1,180.6,349.1z"/>
					<path id="_Path_6" class="st1" d="M181.4,356.7h0.7c0,0,0-1.3-0.1-2.6c0-1.3-0.1-2.6-0.1-2.6l-1,0.1c0,0,0.2,1.3,0.3,2.6
						C181.3,355.3,181.4,356.7,181.4,356.7z"/>
					<path id="_Path_7" class="st1" d="M181.9,364.3h0.2c0,0,0-1.3,0-2.6c0-1.3,0-2.6,0-2.6h-0.5c0,0,0.1,1.3,0.2,2.6
						C181.9,363.1,181.9,364.3,181.9,364.3z"/>
				</g>
			</g>
		</g>
		<g>
			<path class="st1" d="M139.9,309.9c0,0-0.5,0-1.2,0c-0.4,0-0.8,0-1.2,0.1c-0.5,0-0.9,0.1-1.4,0.1l-0.7,0.1c-0.2,0-0.5,0-0.7,0.1
				l-0.6,0.1c-0.2,0-0.4,0.1-0.6,0.1l-0.9,0.1c-0.2,0-0.3,0.1-0.3,0.1l0.4,2.5c0,0,0.1,0,0.3,0l0.8-0.1c0.2,0,0.4,0,0.5-0.1l0.6-0.1
				c0.2,0,0.4,0,0.7-0.1l0.7-0.1c0.5,0,0.9,0,1.3-0.1c0.4,0,0.8,0,1.2,0c0.7,0,1.1,0,1.1,0L139.9,309.9L139.9,309.9z"/>
			<path class="st1" d="M128.3,311.7c-0.2,0.1-0.5,0.1-0.8,0.2s-0.7,0.2-1.2,0.4l-0.7,0.2l-0.3,0.1l-0.3,0.1l-0.7,0.2
				c-0.2,0.1-0.4,0.2-0.6,0.3l-0.6,0.2l-0.5,0.2c-0.3,0.1-0.6,0.3-0.8,0.3l-0.3,0.1l0.8,1.9l0.3-0.1c0.2-0.1,0.5-0.2,0.8-0.3
				l0.5-0.2l0.6-0.2c0.2-0.1,0.4-0.1,0.6-0.2l0.6-0.2l0.3-0.1l0.3-0.1l0.6-0.2c0.4-0.1,0.8-0.2,1.1-0.3c0.3-0.1,0.6-0.1,0.8-0.2
				l0.3-0.1l-0.6-2.3L128.3,311.7z"/>
			<path class="st1" d="M117.8,315.9c-0.2,0.1-0.4,0.3-0.7,0.4l-0.5,0.3l-0.5,0.3c-0.2,0.1-0.4,0.2-0.6,0.4l-0.6,0.4l-0.3,0.2
				l-0.3,0.2l-0.6,0.4c-0.4,0.3-0.7,0.5-1,0.7s-0.5,0.4-0.7,0.5l-0.3,0.2l1,1.4l0.3-0.2c0.2-0.1,0.4-0.3,0.7-0.5s0.6-0.4,1-0.7
				l0.6-0.4l0.3-0.2l0.3-0.2l0.6-0.4c0.2-0.1,0.4-0.2,0.6-0.3l0.5-0.3l0.5-0.3c0.3-0.2,0.6-0.3,0.7-0.4l0.3-0.1l-0.9-1.8
				L117.8,315.9z"/>
			<path class="st1" d="M107.2,324.1l-0.5,0.5c-0.2,0.2-0.3,0.3-0.5,0.5c-0.6,0.7-1.3,1.4-1.7,1.9l-0.6,0.7l-0.2,0.2l1,0.9l0.2-0.2
				l0.6-0.6c0.5-0.5,1.1-1.2,1.8-1.8c0.2-0.2,0.3-0.3,0.5-0.5l0.5-0.5l0.9-0.8l0.9-0.8l-1-1.2l-0.9,0.8L107.2,324.1z"/>
			<path class="st1" d="M100.8,331.8l-0.3,0.5l-0.2,0.2l-0.2,0.3c-0.2,0.4-0.5,0.8-0.7,1.2l-0.4,0.6l-0.3,0.6
				c-0.1,0.2-0.2,0.4-0.3,0.6l-0.3,0.5l-0.2,0.4c-0.1,0.1-0.1,0.2-0.2,0.3l-0.1,0.3l0.8,0.4l0.2-0.3c0-0.1,0.1-0.2,0.2-0.3l0.2-0.4
				l0.3-0.5c0.1-0.2,0.2-0.3,0.3-0.5l0.3-0.6l0.4-0.6c0.2-0.4,0.5-0.8,0.7-1.1l0.2-0.3l0.2-0.2l0.3-0.5c0.2-0.3,0.4-0.5,0.5-0.7
				l0.2-0.3l-1-0.7l-0.2,0.3C101.2,331.3,101,331.6,100.8,331.8z"/>
			<path class="st1" d="M95.8,341.3l-0.2,0.4l-0.2,0.5c-0.1,0.2-0.1,0.4-0.2,0.6l-0.2,0.6c-0.1,0.2-0.1,0.4-0.2,0.7
				c-0.1,0.2-0.2,0.4-0.2,0.7l-0.3,0.7c-0.1,0.4-0.2,0.8-0.3,1.2l-0.1,0.5c0,0.1-0.1,0.3-0.1,0.4l-0.1,0.3l0.5,0.1l0.1-0.3
				c0-0.1,0.1-0.2,0.1-0.4l0.1-0.5c0.1-0.3,0.2-0.7,0.4-1.1l0.2-0.6c0.1-0.2,0.2-0.4,0.2-0.6c0.1-0.2,0.2-0.4,0.2-0.6l0.3-0.6
				c0.1-0.2,0.2-0.4,0.2-0.6l0.2-0.5l0.2-0.4c0.1-0.1,0.1-0.2,0.2-0.3l0.1-0.3l-0.7-0.3L95.8,341.3
				C95.9,341.1,95.9,341.3,95.8,341.3z"/>
			<path class="st1" d="M92.8,352.1c0,0.1,0,0.3-0.1,0.5c-0.1,0.7-0.3,1.6-0.4,2.6l-0.1,0.7c0,0.2,0,0.5-0.1,0.7
				c0,0.4-0.1,0.8-0.1,1.2l-0.1,0.8v0.3H92v-0.3l0.1-0.8c0-0.3,0.1-0.8,0.1-1.2c0-0.2,0.1-0.4,0.1-0.7l0.1-0.7
				c0.1-0.9,0.3-1.8,0.4-2.5C92.8,352.4,92.9,352.3,92.8,352.1l0.2-0.3l0.1-0.3l-0.4-0.1l-0.1,0.3L92.8,352.1z"/>
		</g>
		<g id="_Group_8">
			<g id="_Group_9">
				<g id="_Group_10">
					<polygon id="_Path_15" class="st1" points="135,353.4 133.6,354.3 135.6,357.8 137.1,356.8 					"/>
					<g>
						<polygon class="st1" points="132.6,352.7 133.9,351.8 131.8,348.6 130.7,349.3 						"/>
						<polygon class="st1" points="129.7,347.6 130.8,346.9 128.7,343.6 127.7,344.2 						"/>
						<polygon class="st1" points="126.8,342.4 127.6,341.9 125.5,338.7 124.8,339.1 						"/>
						<polygon class="st1" points="123.9,337.3 124.5,336.9 122.4,333.7 121.9,333.9 						"/>
						<polygon class="st1" points="120.9,332.3 121.4,332.1 119.3,328.8 119,328.8 						"/>
						<polygon class="st1" points="116,323.8 118,327.3 118.2,327.1 116.1,323.8 						"/>
					</g>
				</g>
			</g>
		</g>
		<g id="_Group_11">
			<g id="_Group_12">
				<g id="_Group_13">
					<polygon id="_Path_22" class="st1" points="138.7,353.8 137.2,353.3 135.5,356.9 137.1,357.7 					"/>
					<g>
						<polygon class="st1" points="139.4,351.9 141,348.2 139.8,347.6 138,351.3 						"/>
						<polygon class="st1" points="141.8,346.3 143.3,342.3 142.3,341.9 140.6,345.8 						"/>
						<polygon class="st1" points="144.1,340.4 145.6,336.7 144.9,336.3 143.1,340.1 						"/>
						<polygon class="st1" points="146.4,334.8 148,330.9 147.4,330.7 145.7,334.4 						"/>
						<polygon class="st1" points="148.7,329.1 150.3,325.3 150,325.1 148.3,328.8 						"/>
						<polygon class="st1" points="150.8,323.3 151,323.3 152.6,319.4 152.5,319.4 						"/>
					</g>
				</g>
			</g>
		</g>
		<g>
			<path class="st1" d="M134.1,355.9c-1.1,0-2.2,0.1-2.2,0.1v3.3c0,0,1.1,0,2.2,0.1c1.1,0.1,2.2,0.1,2.2,0.1v-3.7
				C136.3,355.8,135.2,355.8,134.1,355.9z"/>
			<polygon class="st1" points="127.7,359.3 129.8,359.3 129.8,356.2 127.6,356.3 125.4,356.4 125.5,359.3 			"/>
			<path class="st1" d="M121.2,359.3c1.1,0,2.2,0,2.2,0l-0.1-2.6l-2.2,0.2l-2.2,0.2l0.1,2.3L121.2,359.3z"/>
			<path class="st1" d="M114.8,359.3c1.1,0,2.2-0.1,2.2-0.1l-0.1-2.1c0,0-1.1,0.1-2.2,0.2s-2.2,0.2-2.2,0.2l0.1,1.7
				C112.6,359.4,113.7,359.3,114.8,359.3z"/>
			<path class="st1" d="M110.4,357.9c0,0-1.1,0.1-2.2,0.3c-1.1,0.2-2.2,0.3-2.2,0.3l0.1,1.2c0,0,1.1-0.1,2.2-0.1
				c1.1-0.1,2.2-0.1,2.2-0.1L110.4,357.9z"/>
			<path class="st1" d="M101.8,359.3c-0.5,0.1-1.1,0.2-1.5,0.3l-0.7,0.1l0.1,0.7l0.7-0.1c0.4-0.1,0.9-0.1,1.5-0.2
				c1.1-0.1,2.2-0.2,2.2-0.2l-0.1-1C103.9,358.8,102.9,359.1,101.8,359.3z"/>
			<path class="st1" d="M96.9,360.4c-0.4,0.1-0.9,0.3-1.4,0.4s-1,0.4-1.4,0.5s-0.6,0.3-0.6,0.3l0.1,0.2c0,0,0.2-0.1,0.6-0.2
				s0.9-0.3,1.4-0.4s1.1-0.2,1.5-0.3c0.4-0.1,0.7-0.1,0.7-0.1l-0.1-0.5C97.6,360.3,97.3,360.3,96.9,360.4z"/>
		</g>
		<g>
			<path class="st1" d="M137,359.2c0,0,1.2,0,2.3-0.1c1.2,0,2.3,0,2.3,0l0.1-3.3c0,0-1.2-0.1-2.4-0.1c-1.2-0.1-2.4-0.1-2.4-0.1
				L137,359.2L137,359.2z"/>
			<path class="st1" d="M146.3,359.1c0.6,0,1.2,0,1.6,0h0.7l0.2-2.8l-0.7-0.1c-0.4,0-1-0.1-1.6-0.2c-1.2-0.1-2.4-0.2-2.4-0.2
				l-0.1,3.1C144,359.1,145.2,359.1,146.3,359.1z"/>
			<path class="st1" d="M153.3,359.3c1.2,0.1,2.3,0.2,2.3,0.2l0.3-2.3c0,0-1.2-0.2-2.4-0.3s-2.4-0.3-2.4-0.3l-0.2,2.6
				C151,359.2,152.1,359.3,153.3,359.3z"/>
			<path class="st1" d="M158.6,359.8c0.4,0,1,0.1,1.6,0.2c1.2,0.1,2.3,0.3,2.3,0.3l0.3-1.7c0,0-1.2-0.2-2.3-0.5
				c-0.6-0.1-1.2-0.2-1.6-0.3l-0.7-0.1l-0.3,2.1H158.6z"/>
			<path class="st1" d="M165.6,360.7c0.2,0,0.5,0.1,0.7,0.1s0.6,0.1,0.8,0.2c0.3,0.1,0.6,0.1,0.8,0.2c0.3,0.1,0.5,0.1,0.7,0.1
				l0.5,0.1h0.2l0.3-1.2l-0.2-0.1l-0.5-0.1c-0.2-0.1-0.5-0.1-0.7-0.2c-0.3-0.1-0.6-0.2-0.8-0.2c-0.3-0.1-0.6-0.1-0.8-0.2
				c-0.3-0.1-0.5-0.1-0.7-0.2c-0.4-0.1-0.7-0.2-0.7-0.2l-0.3,1.5C164.8,360.6,165.1,360.6,165.6,360.7z"/>
			<path class="st1" d="M171.9,361.9c0.1,0,0.3,0.1,0.5,0.1c0.4,0.1,1,0.3,1.5,0.4s1.1,0.4,1.5,0.5l0.5,0.2c0.1,0,0.2,0.1,0.2,0.1
				l0.3-0.6c0,0-0.1,0-0.2-0.1l-0.5-0.2c-0.4-0.2-1-0.4-1.5-0.6c-0.6-0.2-1.1-0.4-1.5-0.6c-0.2-0.1-0.4-0.1-0.5-0.2l-0.2-0.1l-0.3,1
				L171.9,361.9z"/>
			<path class="st1" d="M178.4,364.3l0.2,0.1l0.3,0.1c0.5,0.2,0.9,0.5,1.4,0.8c0.4,0.3,0.8,0.6,1.2,1c0.1,0.1,0.1,0.2,0.2,0.2
				c0.1,0.1,0.1,0.1,0.2,0.2l0.1,0.2l0.1-0.1l-0.1-0.2c0-0.1-0.1-0.1-0.1-0.2c-0.1-0.1-0.1-0.2-0.2-0.2c-0.4-0.4-0.8-0.8-1.2-1.1
				c-0.4-0.3-0.9-0.7-1.3-1l-0.3-0.2l-0.2-0.1l-0.2-0.1l-0.2,0.5L178.4,364.3z"/>
		</g>
	</g>
	<ellipse id="_Path_43" class="st1" cx="92.1" cy="361.6" rx="4" ry="4.1"/>
	<ellipse id="_Path_44" class="st1" cx="181.7" cy="365.7" rx="4.4" ry="4.4"/>
	<ellipse id="_Path_45" class="st1" cx="113.7" cy="320.2" rx="4.2" ry="4.3"/>
	<ellipse id="_Path_46" class="st1" cx="137" cy="357.3" rx="4.3" ry="4.5"/>
	<g>
		<path d="M154.7,301.1c-0.2,0.4-0.4,0.7-0.6,1.1c-0.8,1.5-1.7,3.1-2.5,4.6c-0.7,1.2-1.3,2.5-2,3.7c-0.8,1.4-1.5,2.8-2.3,4.2
			c-0.2,0.3-0.2,0.3,0.2,0.5c0.8,0.3,1.5,0.6,2.3,0.9c0.6,0.2,1.1,0.3,1.7,0.5c0.4,0.1,0.9,0.2,1.3,0.3c0.7,0.1,1.5,0.2,2.2,0.3
			c1,0.1,1.9,0.2,2.9,0.1c1.1-0.1,2.1-0.1,3.2-0.3c1.3-0.2,2.5-0.5,3.7-0.9c0.9-0.3,1.8-0.7,2.6-1.1s1.6-0.9,2.5-1.3
			c-2.8-4.3-5.6-8.6-8.3-13c-1,0.6-2.1,1-3.4,1.1C157,301.8,155.8,301.7,154.7,301.1z"/>
		<path d="M154.4,289.6c-2.8-4.3-5.5-8.6-8.3-12.9c-7,4.8-10.7,11.3-10.8,19.9c5.3-0.3,10.6-0.7,15.9-1
			C151.2,292.9,152.3,291.1,154.4,289.6z"/>
		<path d="M161.2,289.2c1.1,0.5,1.9,1.3,2.6,2.3c0.6,1,1,2.1,1,3.2c5.3-0.3,10.6-0.7,15.9-1c-0.5-8.4-4.5-14.5-11.9-18.5
			C166.3,279.9,163.7,284.6,161.2,289.2z"/>
		<path d="M160.9,291.7c-0.8-0.6-1.8-1-3-1c-0.4,0-1.1,0.1-1.7,0.4c-1.2,0.6-2,1.5-2.5,2.8c-0.3,1-0.3,2,0.1,2.9
			c0.5,1.3,1.5,2.1,2.8,2.6c0.6,0.2,1.2,0.2,1.9,0.1c1.7-0.2,3-1.2,3.7-2.7c0.4-0.9,0.5-1.8,0.3-2.8
			C162.2,293.1,161.7,292.3,160.9,291.7z"/>
	</g>
	<g>
		<path class="st2" d="M149.3,317.8c-3-1-5.6-2.6-7.9-4.6c-2.3-2-4.1-4.5-5.5-7.5c-1.4-2.9-2.1-6.4-2.1-10.3c0-3.8,0.7-7.2,2.1-10.2
			c1.4-3,3.2-5.4,5.5-7.5c2.3-2,4.9-3.6,7.9-4.6c6-2.1,12.6-2.1,18.7,0c3,1,5.6,2.6,7.9,4.6s4.1,4.5,5.4,7.5c1.3,3,2,6.4,2,10.3
			c0,3.8-0.7,7.2-2,10.2s-3.2,5.4-5.4,7.5c-2.3,2-4.9,3.6-7.9,4.6C161.9,319.9,155.3,319.9,149.3,317.8z M167.2,315.9
			c2.8-0.9,5.2-2.3,7.3-4.2c2.1-1.9,3.8-4.1,5-6.8c1.3-2.7,1.9-5.8,1.9-9.4c0-3.5-0.6-6.6-1.9-9.3s-2.9-5-5-6.8s-4.5-3.2-7.3-4.2
			c-2.8-0.9-5.7-1.4-8.6-1.4c-2.9,0-5.8,0.5-8.5,1.4c-2.8,0.9-5.2,2.3-7.3,4.2c-2.1,1.9-3.8,4.1-5.1,6.8c-1.3,2.7-1.9,5.8-1.9,9.3
			c0,3.6,0.6,6.7,1.9,9.4c1.3,2.7,3,5,5.1,6.8c2.1,1.9,4.5,3.2,7.3,4.2c2.8,0.9,5.6,1.4,8.5,1.4
			C161.5,317.3,164.5,316.8,167.2,315.9L167.2,315.9z"/>
		<path class="st2" d="M164,228.3c-1.4,1-2.6,2.3-3.5,3.9s-1.6,3.4-2.2,5.5c-0.5,2-1,4.1-1.5,6.1c-0.7,2.9-1.3,5.4-1.7,7.6
			c-0.5,2-1,4.1-1.7,6c-0.7,1.8-1.6,3.2-2.9,4.3c-1.3,1.1-3,1.6-5.4,1.6c-0.4,0-1.2-0.1-2.3-0.4s-2.2-0.9-3.4-2
			c-1.1-1-2.1-2.6-3-4.7s-1.3-5.1-1.3-8.8c0-2.5,0.2-4.9,0.7-7s1.3-3.9,2.3-5.4s2.5-2.7,4.1-3.5c1.7-0.8,3.7-1.2,6.1-1.2v-2.1
			c-5.3,0-9.1,1.7-11.5,5.2s-3.6,8.1-3.6,14c0,3.3,0.4,6.1,1.1,8.4c0.7,2.3,1.7,4.1,2.8,5.6c1.2,1.4,2.5,2.5,3.9,3.1s2.8,0.9,4,0.9
			c2.6,0,4.6-0.5,6.2-1.5s2.7-2.6,3.6-4.8c0.6-1.5,1.2-3.2,1.7-5.1s1-4.2,1.6-6.7c0.5-2.3,1-4.5,1.5-6.7s1.1-4.1,2-5.8
			c0.8-1.7,1.9-3.1,3.2-4.1c1.3-1.1,3-1.6,5.1-1.6c2,0,3.7,0.5,5.1,1.6c1.4,1.1,2.6,2.4,3.4,4.1c0.9,1.6,1.5,3.5,1.9,5.5
			s0.6,3.9,0.6,5.9c0,6.3-1.2,11-3.7,14.4c-2.5,3.3-6.4,5-11.7,5v2.1c5.9,0,10.3-1.8,13-5.4s4.1-9,4.1-16c0-2.3-0.2-4.6-0.7-6.9
			s-1.2-4.4-2.3-6.2c-1-1.8-2.4-3.3-4-4.4c-1.7-1.1-3.7-1.7-6.1-1.7C167.2,226.8,165.4,227.3,164,228.3z"/>
		<path class="st2" d="M148.9,175.4c-3,0.9-5.7,2.2-8,4.1c-2.3,1.9-4.2,4.3-5.6,7.3c-1.4,3-2.1,6.5-2.1,10.7c0,3,0.6,5.9,1.7,8.7
			c1.1,2.8,2.7,5.3,4.8,7.4s4.7,3.8,7.8,5.2c3.1,1.3,6.6,2,10.5,2c3.5,0,6.7-0.4,9.8-1.3c3-0.9,5.7-2.3,7.9-4.1
			c2.2-1.9,4-4.2,5.2-7.2c1.2-2.9,1.8-6.4,1.7-10.6c0-6-1.5-11.1-4.6-15.2c-3-4.1-7.3-6.6-12.8-7.3v2.1c5.2,0.9,9.1,3.2,11.7,6.8
			c2.6,3.7,3.9,8.3,3.9,13.9c0,3.8-0.6,7-1.7,9.6c-1.2,2.6-2.8,4.7-4.8,6.4c-2,1.6-4.4,2.9-7.1,3.7c-2.7,0.8-5.7,1.2-8.9,1.3v-44.3
			C155.1,174.2,152,174.6,148.9,175.4z M156.5,218.7c-3.3-0.2-6.3-0.9-8.9-2.1c-2.6-1.2-4.9-2.7-6.8-4.6c-1.9-1.9-3.3-4.1-4.3-6.6
			s-1.5-5.2-1.5-8.1c0-3.4,0.6-6.5,1.7-9.1c1.1-2.6,2.7-4.8,4.6-6.5c2-1.8,4.2-3.1,6.8-4s5.3-1.3,8.2-1.3v42.3L156.5,218.7
			L156.5,218.7z"/>
		<polygon class="st2" points="116,113.2 179.3,113.2 179.3,113.5 116,163.7 116,166.9 181.6,166.9 181.6,164.9 118.3,164.9 
			118.3,164.7 181.6,114.2 181.6,111.2 116,111.2 		"/>
		<path class="st2" d="M148.9,58.6c-3,0.9-5.7,2.2-8,4.1c-2.3,1.9-4.2,4.3-5.6,7.3c-1.4,3-2.1,6.5-2.1,10.7c0,3,0.6,5.9,1.7,8.7
			c1.1,2.8,2.7,5.3,4.8,7.4s4.7,3.8,7.8,5.2c3.1,1.3,6.6,2,10.5,2c3.5,0,6.7-0.4,9.8-1.3c3-0.9,5.7-2.3,7.9-4.1
			c2.2-1.9,4-4.2,5.2-7.2c1.2-2.9,1.8-6.4,1.7-10.6c0-6-1.5-11.1-4.6-15.2c-3-4.1-7.3-6.6-12.8-7.3v2.1c5.2,0.9,9.1,3.2,11.7,6.8
			c2.6,3.7,3.9,8.3,3.9,13.9c0,3.8-0.6,7-1.7,9.6c-1.2,2.6-2.8,4.7-4.8,6.4c-2,1.6-4.4,2.9-7.1,3.7c-2.7,0.8-5.7,1.2-8.9,1.3V57.5
			C155.1,57.3,152,57.7,148.9,58.6z M156.5,101.7c-3.3-0.2-6.3-0.9-8.9-2.1c-2.6-1.2-4.9-2.7-6.8-4.6c-1.9-1.9-3.3-4.1-4.3-6.6
			s-1.5-5.2-1.5-8.1c0-3.4,0.6-6.5,1.7-9.1c1.1-2.6,2.7-4.8,4.6-6.5c2-1.8,4.2-3.1,6.8-4l0,0c2.6-0.9,5.3-1.3,8.2-1.3v42.3
			C156.3,101.7,156.5,101.7,156.5,101.7z"/>
		<path class="st2" d="M136.2,30.1h-1.9v12h-14.9v2.1h14.9v9.7h1.8v-9.7h36.6c3.4,0,5.7-0.8,6.9-2.5c1.3-1.7,1.9-3.7,1.9-6.1
			c0-1.6,0-2.7-0.1-3.2c-0.1-0.6-0.1-1.2-0.2-1.8h-1.8c0.1,0.3,0.2,0.9,0.2,1.8c0,0.8,0,1.8,0,2.8c0,0.8,0,1.7-0.1,2.5
			s-0.4,1.6-0.9,2.3s-1.2,1.3-2.2,1.7s-2.4,0.7-4.1,0.7h-36.2V30.1H136.2z"/>
	</g>
</g>
<g>
	<polyline class="st0" points="394.9,718 425.6,718 425.6,705.9 456.5,705.9 456.5,718 475.9,718 475.9,705.9 495.3,705.9 
		495.3,718 514.8,718 514.8,705.9 534.2,705.9 534.2,718 553.6,718 553.6,705.9 573.1,705.9 573.1,718 592.5,718 592.5,705.9 
		611.9,705.9 611.9,718 631.4,718 631.4,705.9 650.8,705.9 650.8,718 670.2,718 670.2,705.9 689.8,705.9 689.8,718 709.2,718 
		709.2,705.9 728.5,705.9 728.5,718 748.1,718 748.1,705.9 767.5,705.9 767.5,718 786.9,718 786.9,705.9 806.4,705.9 806.4,718 
		825.8,718 825.8,705.9 845.2,705.9 845.2,718 864.6,718 864.6,705.9 884.1,705.9 884.1,718 903.5,718 903.5,705.9 922.9,705.9 
		922.9,718 942.5,718 942.5,705.9 961.9,705.9 961.9,718 981.4,718 981.4,705.9 1012.1,705.9 1012.1,718 1033.1,718 1042.9,718 	"/>
	<polyline class="st0" points="1042.9,394 1041.3,394 1033.1,394 1012.1,394 981.4,394 961.9,394 942.5,394 922.9,394 903.5,394 
		884.1,394 864.6,394 845.2,394 825.8,394 806.4,394 786.9,394 767.5,394 748.1,394 728.5,394 709.2,394 689.8,394 670.2,394 
		650.8,394 631.4,394 611.9,394 592.5,394 573.1,394 553.6,394 534.2,394 514.8,394 495.3,394 475.9,394 456.5,394 425.6,394 
		394.9,394 	"/>
	<polyline class="st0" points="1042.9,545 1053.7,545 1053.7,554.3 1042.9,554.3 	"/>
	<polyline class="st0" points="1042.9,597 1053.7,597 1053.7,606.3 1042.9,606.3 	"/>
	<polyline class="st0" points="1042.9,493 1053.7,493 1053.7,502.3 1042.9,502.3 	"/>
	<line class="st0" x1="1042.9" y1="394" x2="1042.9" y2="493"/>
	<line class="st0" x1="1042.9" y1="606.3" x2="1042.9" y2="718"/>
	<line class="st0" x1="1042.9" y1="545" x2="1042.9" y2="502.3"/>
	<line class="st0" x1="1042.9" y1="597" x2="1042.9" y2="554.3"/>
</g>
<g>
	<polyline class="st0" points="668.6,353.4 699.3,353.4 730.2,353.4 749.6,353.4 769,353.4 788.5,353.4 807.9,353.4 827.3,353.4 
		846.8,353.4 866.2,353.4 885.6,353.4 905.1,353.4 924.5,353.4 943.9,353.4 963.5,353.4 982.9,353.4 1002.3,353.4 1021.8,353.4 
		1041.2,353.4 1060.6,353.4 1080.1,353.4 1099.5,353.4 1118.9,353.4 1138.3,353.4 1157.8,353.4 1177.2,353.4 1196.6,353.4 
		1216.2,353.4 1235.6,353.4 1255.1,353.4 1285.8,353.4 1306.8,353.4 1315,353.4 1316.6,353.4 	"/>
	<polyline class="st0" points="1316.6,29.5 1306.8,29.5 1285.8,29.5 1285.8,41.6 1255.1,41.6 1255.1,29.5 1235.6,29.5 1235.6,41.6 
		1216.2,41.6 1216.2,29.5 1196.6,29.5 1196.6,41.6 1177.2,41.6 1177.2,29.5 1157.8,29.5 1157.8,41.6 1138.3,41.6 1138.3,29.5 
		1118.9,29.5 1118.9,41.6 1099.5,41.6 1099.5,29.5 1080.1,29.5 1080.1,41.6 1060.6,41.6 1060.6,29.5 1041.2,29.5 1041.2,41.6 
		1021.8,41.6 1021.8,29.5 1002.3,29.5 1002.3,41.6 982.9,41.6 982.9,29.5 963.5,29.5 963.5,41.6 943.9,41.6 943.9,29.5 924.5,29.5 
		924.5,41.6 905.1,41.6 905.1,29.5 885.6,29.5 885.6,41.6 866.2,41.6 866.2,29.5 846.8,29.5 846.8,41.6 827.3,41.6 827.3,29.5 
		807.9,29.5 807.9,41.6 788.5,41.6 788.5,29.5 769,29.5 769,41.6 749.6,41.6 749.6,29.5 730.2,29.5 730.2,41.6 699.3,41.6 
		699.3,29.5 668.6,29.5 	"/>
	<polyline class="st0" points="1316.8,202.6 1327.6,202.6 1327.6,193.1 1316.8,193.1 	"/>
	<polyline class="st0" points="1316.8,254.5 1327.6,254.5 1327.6,245.1 1316.8,245.1 	"/>
	<polyline class="st0" points="1316.8,150.6 1327.6,150.6 1327.6,141.1 1316.8,141.1 	"/>
	<line class="st0" x1="1316.6" y1="29.5" x2="1316.6" y2="141.1"/>
	<line class="st0" x1="1316.8" y1="193.1" x2="1316.8" y2="150.6"/>
	<line class="st0" x1="1316.8" y1="245.1" x2="1316.8" y2="202.6"/>
	<line class="st0" x1="1316.8" y1="353.4" x2="1316.8" y2="254.5"/>
</g>
<line class="st0" x1="1761.5" y1="386.6" x2="1905.5" y2="197.6"/>
<line class="st0" x1="1761.5" y1="8.6" x2="1905.5" y2="197.6"/>
<g>
	<polyline class="st0" points="20.5,672.1 394.9,672.1 394.9,944.3 	"/>
	<path class="st0" d="M34.9,944.3"/>
	<polyline class="st0" points="203,944.3 203,953.3 212.4,953.3 212.4,944.3 	"/>
	<polyline class="st0" points="99,944.3 99,953.3 108.4,953.3 108.4,944.3 	"/>
	<polyline class="st0" points="307,944.3 307,953.3 316.4,953.3 316.4,944.3 	"/>
	<rect x="234.4" y="615.5" class="st0" width="9.8" height="14.4"/>
	<rect x="182.4" y="615.5" class="st0" width="9.8" height="14.4"/>
	<rect x="286.4" y="615.5" class="st0" width="9.8" height="14.4"/>
	<rect x="234.3" y="715.6" class="st0" width="9.8" height="14.4"/>
	<rect x="182.4" y="715.6" class="st0" width="9.8" height="14.4"/>
	<rect x="286.4" y="715.6" class="st0" width="9.8" height="14.4"/>
	<polyline class="st0" points="203,390.6 203,399.6 212.4,399.6 212.4,390.6 	"/>
	<polyline class="st0" points="99,390.6 99,399.6 108.4,399.6 108.4,390.6 	"/>
	<polyline class="st0" points="307,390.6 307,399.6 316.4,399.6 316.4,390.6 	"/>
	<line class="st0" x1="394.9" y1="390.6" x2="394.9" y2="672.1"/>
	<g>
		<line class="st0" x1="394.9" y1="390.6" x2="316.4" y2="390.6"/>
		<line class="st0" x1="212.4" y1="390.6" x2="307" y2="390.6"/>
		<line class="st0" x1="108.4" y1="390.6" x2="203" y2="390.6"/>
		<line class="st0" x1="20.5" y1="390.6" x2="99" y2="390.6"/>
	</g>
	<line class="st0" x1="20.5" y1="944.3" x2="99" y2="944.3"/>
	<line class="st0" x1="203" y1="944.3" x2="108.4" y2="944.3"/>
	<line class="st0" x1="307" y1="944.3" x2="212.4" y2="944.3"/>
	<line class="st0" x1="394.9" y1="944.3" x2="316.4" y2="944.3"/>
	<line class="st0" x1="20.5" y1="390.6" x2="20.5" y2="672.1"/>
	<line class="st0" x1="20.5" y1="672.1" x2="20.5" y2="944.3"/>
</g>
<g>
	<path class="st3" d="M362.7,108.8V288h127.2c50,0,90.5-40.5,90.5-90.5S539.9,107,489.9,107L362.7,108.8z M418.4,108.8
		c8.9,0,15.1,1.1,22.8,4.1c8.8,3.4,21.5,9.8,25.3,12.7c12.1,9.4,22.2,20.8,27,30.4c1.3,2.5,2.4,4.7,2.5,4.8c0.5,0.6,2.8-1.8,5.6-6
		c3.5-5.1,14.4-18.9,15.9-20.1c1.4-1.1,6.8-2.6,9.2-2.6c2.7,0,9.6,3.2,11.6,5.4c1.9,2,3.2,5.8,3.2,9.1c0,1.9-0.3,2.1-2.6,2.1
		c-2.3,0-2.8-0.4-3.7-2.5c-2-4.6-4.9-6.2-10.7-5.9c-0.9,0-2.6,1.1-3.9,2.4c-5.6,5.4-3.1,13.4,4.7,15c1.6,0.3,2.3,1,2.5,2.2
		c0.4,2.7-0.8,3.3-5.5,2.7c-3.7-0.5-4.7-1-7.8-3.9l-3.5-3.4l-2.1,2.5c-1.1,1.4-2.1,3.1-2.1,4c0,0.8,1.7,3,3.9,5l3.9,3.5l-1.7,2.1
		c-3.3,4.2-3.3,4.2,16.6,4.3c10.1,0.1,19,0.1,19.8,0.2c1.5,0.1,1.5,0.7,1.7,16.1l0.2,16h-21.5c-17.7,0-21.6,0.2-21.9,1
		c-0.2,0.6,1.2,3.5,3.1,6.5c1.9,3,3.4,5.8,3.3,6.1c-0.1,0.4-1.9,2-4,3.5c-2.1,1.6-3.8,3.3-3.9,3.9c-0.1,0.6,1.1,2.6,2.7,4.5l2.9,3.4
		l3.1-3.2c3.2-3.3,5.3-4.2,8.9-3.8c1.8,0.2,2.2,0.6,2.4,2.5c0.2,2-0.1,2.4-2.7,3.6c-3.5,1.5-4.9,3.8-5,8.1c-0.1,2.7,0.3,3.5,2.4,5.3
		c1.8,1.6,3.2,2.2,5.3,2.2c3.1,0,4.9-1.2,8-5.5c2.1-2.8,3.7-3.4,5.7-2.1c1.6,1,0.4,5.7-2.2,8.7c-2.7,3.1-8.1,5.7-11.7,5.7
		c-1.5,0-4.4-0.7-6.5-1.6c-3.2-1.4-4.8-2.9-11.1-11c-4-5.2-9.5-12.4-12.2-16c-7.5-10.1-9.5-12.4-10.4-11.9c-0.4,0.3-1.4,2.3-2.1,4.5
		c-1.8,5.7-9.6,20.3-13.5,25.4c-5.1,6.6-16.1,17.5-21.1,20.9c-7.5,5.1-18.4,9.8-26.7,11.7c-3.6,0.8-25.9,3.9-28.2,3.9
		c0-3.2,0.1-1.3,0.1-12.5v-13.3c0.6-0.5,3-0.8,4.4-0.8c5.5,0,20.1-3.8,26.4-6.9c9.7-4.7,19.8-13.7,26.1-23.3
		c4.3-6.6,8.4-17.2,9.2-23.8c1.3-11.4,1.5-10.9-4.2-10.9H452l-0.5,5.5c-0.8,8.4-1.7,11.7-5.1,18.3c-6.8,13.5-12.4,18.9-25.9,25.3
		c-5.5,2.6-9.5,3.9-14.9,4.9c-4,0.7-8.7,1.3-9.4,1.1c0-1.2,0.5-19.6,0.5-19.6l-5.9-0.1c-9.1-0.1-13.8-2.5-15.2-8
		c-0.4-1.6-0.8-11.5-0.8-22l-0.1-19.1l9.6,0.4c5.3,0.2,20,0.5,32.7,0.7l23,0.2l0.3-1.8c0.2-1.4-0.9-2.9-4.6-6.5
		c-5.4-5.2-10.7-7.6-19.6-8.5l-5.1-0.9c0,0,0,0-0.7-18.6c2.1-0.3,4.9-0.6,12.4,0.7c7.1,1.3,9.7,2.3,17.5,6.9
		c12.7,7.5,23.4,23.3,25.5,37.4l0.5,3.5l4.6,0.3c3.2,0.2,4.7,0,4.9-0.7c1.3-3.5-3-18.2-7.4-25.2c-7.1-11.2-12.4-16.8-22.2-23.5
		c-8.1-5.5-15.9-8.4-25.5-9.7c-3.8-0.5-7.7-1.2-8.2-1.6c-0.6-24.7-0.6-24.7-0.6-24.7L418.4,108.8z"/>
	<path class="st3" d="M416.6,212.1c4.9,0.3,9.1,0.8,9.2,1.2c0.3,1.2-3.1,6-6.4,8.8c-5.2,4.5-10.8,6.8-17,7.2l-5.5,0.4l0.4-8.6
		c0.2-4.7,0.7-8.9,1-9.3C398.9,211.2,400,211.2,416.6,212.1z"/>
	<path class="st3" d="M384.6,191.1c0.8,0,2.4,0.8,3.5,1.7c1.4,1.2,2.1,2.7,2.4,5.1c0.3,3.1,0.2,3.7-2,5.8c-1.5,1.5-3.2,2.4-4.3,2.4
		c-1.9,0-1.9,0-1.5-4.6c0.3-2.6,0.5-5.9,0.5-7.5C383.1,191.6,383.4,191.1,384.6,191.1z"/>
</g>
</svg>
