<?xml version="1.0" encoding="utf-8"?>
<!-- Generator: Adobe Illustrator 19.2.1, SVG Export Plug-In . SVG Version: 6.00 Build 0)  -->
<svg version="1.1" id="Layer_1" xmlns="http://www.w3.org/2000/svg" xmlns:xlink="http://www.w3.org/1999/xlink" x="0px" y="0px"
	 viewBox="0 0 2160 1296" style="enable-background:new 0 0 2160 1296;" xml:space="preserve">
<style type="text/css">
	.st0{fill:none;stroke:#FF0000;stroke-width:1.000000e-003;}
	.st1{stroke:#000000;stroke-width:1.4224;stroke-miterlimit:10;}
	.st2{stroke:#000000;stroke-width:3.556;stroke-miterlimit:10;}
</style>
<g transform="translate(22.5, 22.5) ">
	<polyline class="st0" points="5.1,801 5.1,772.4 22.1,772.4 22.1,743.9 5.1,743.9 5.1,722.3 22.1,722.3 22.1,700.7 5.1,700.7 
		5.1,679.1 22.1,679.1 22.1,657.5 5.1,657.5 5.1,635.9 22.1,635.9 22.1,614.3 5.1,614.3 5.1,592.7 22.1,592.7 22.1,571.1 5.1,571.1 
		5.1,549.5 22.1,549.5 22.1,527.9 5.1,527.9 5.1,506.3 22.1,506.3 22.1,484.7 5.1,484.7 5.1,463.1 22.1,463.1 22.1,434.5 5.1,434.5 
		5.1,406 	"/>
</g>
<g transform="translate(1684.98, 22.5) ">
	<polygon class="st0" points="-688,801 -707.5,801 -707.5,784 -743.8,784 -743.8,801 -765.3,801 -765.3,784 -786.7,784 -786.7,801 
		-808.1,801 -808.1,784 -829.5,784 -829.5,801 -851,801 -851,784 -872.4,784 -872.4,801 -893.8,801 -893.8,784 -915.2,784 
		-915.2,801 -936.6,801 -936.6,784 -972.9,784 -972.9,801 -992.5,801 -992.5,772.5 -1009.3,772.5 -1009.3,743.9 -992.5,743.9 
		-992.5,722.3 -1009.3,722.3 -1009.3,700.7 -992.5,700.7 -992.5,679.1 -1009.3,679.1 -1009.3,657.5 -992.5,657.5 -992.5,635.9 
		-1009.3,635.9 -1009.3,614.3 -992.5,614.3 -992.5,592.7 -1009.3,592.7 -1009.3,571.1 -992.5,571.1 -992.5,549.5 -1009.3,549.5 
		-1009.3,527.9 -992.5,527.9 -992.5,506.3 -1009.3,506.3 -1009.3,484.7 -992.5,484.7 -992.5,463.1 -1009.3,463.1 -1009.3,434.6 
		-992.5,434.6 -992.5,406 -972.9,406 -972.9,423 -936.6,423 -936.6,406 -915.2,406 -915.2,423 -893.8,423 -893.8,406 -872.4,406 
		-872.4,423 -851,423 -851,406 -829.5,406 -829.5,423 -808.1,423 -808.1,406 -786.7,406 -786.7,423 -765.3,423 -765.3,406 
		-743.8,406 -743.8,423 -707.5,423 -707.5,406 -688,406 -688,434.6 -671.1,434.6 -671.1,463.1 -688,463.1 -688,484.7 -671.1,484.7 
		-671.1,506.3 -688,506.3 -688,527.9 -671.1,527.9 -671.1,549.5 -688,549.5 -688,571.1 -671.1,571.1 -671.1,592.7 -688,592.7 
		-688,614.3 -671.1,614.3 -671.1,635.9 -688,635.9 -688,657.5 -671.1,657.5 -671.1,679.1 -688,679.1 -688,700.7 -671.1,700.7 
		-671.1,722.3 -688,722.3 -688,743.9 -671.1,743.9 -671.1,772.5 -688,772.5 	"/>
</g>
<g>
	<g transform="translate(853.74, 22.5) ">
		<polyline class="st0" points="-161.2,9 -139.6,9 -139.6,26 -118,26 -118,9 -96.4,9 -96.4,26 -74.8,26 -74.8,9 -53.2,9 -53.2,26 
			-31.6,26 -31.6,9 -10,9 -10,26 11.6,26 11.6,9 33.2,9 33.2,26 54.8,26 54.8,9 76.4,9 76.4,26 98,26 98,9 119.6,9 119.6,26 
			141.2,26 141.2,9 162.8,9 162.8,26 184.4,26 184.4,9 206,9 206,26 227.6,26 227.6,9 249.2,9 249.2,26 270.8,26 270.8,9 292.4,9 
			292.4,26 323.6,26 323.6,9 354.8,9 354.8,37.6 337.9,37.6 337.9,66.1 354.8,66.1 354.8,87.7 337.9,87.7 337.9,109.3 354.8,109.3 
			354.8,130.9 337.9,130.9 337.9,152.5 354.8,152.5 354.8,174.1 337.9,174.1 337.9,195.7 354.8,195.7 354.8,217.3 337.9,217.3 
			337.9,238.9 354.8,238.9 354.8,260.5 337.9,260.5 337.9,282.1 354.8,282.1 354.8,303.7 337.9,303.7 337.9,325.3 354.8,325.3 
			354.8,346.9 337.9,346.9 337.9,375.5 354.8,375.5 354.8,404 323.6,404 323.6,387 292.4,387 292.4,404 270.8,404 270.8,387 
			249.2,387 249.2,404 227.6,404 227.6,387 206,387 206,404 184.4,404 184.4,387 162.8,387 162.8,404 141.2,404 141.2,387 
			119.6,387 119.6,404 98,404 98,387 76.4,387 76.4,404 54.8,404 54.8,387 33.2,387 33.2,404 11.6,404 11.6,387 -10,387 -10,404 
			-31.6,404 -31.6,387 -53.2,387 -53.2,404 -74.8,404 -74.8,387 -96.4,387 -96.4,404 -118,404 -118,387 -139.6,387 -139.6,404 		"/>
	</g>
	<path class="st0" d="M692.5,31.5"/>
</g>
<g>
	<g transform="translate(853.74, 516.24) ">
		<line class="st0" x1="-161.2" y1="363.6" x2="-161.2" y2="631.3"/>
		<polyline class="st0" points="-288.5,631.3 -310.1,631.3 -310.1,614.4 -331.7,614.4 -331.7,631.3 -353.3,631.3 -353.3,614.4 
			-374.9,614.4 -374.9,631.3 -396.5,631.3 -396.5,614.4 -418.1,614.4 -418.1,631.3 -439.7,631.3 -439.7,614.4 -461.3,614.4 
			-461.3,631.3 -482.9,631.3 -482.9,614.4 -504.5,614.4 -504.5,631.3 -526.1,631.3 -526.1,614.4 -547.7,614.4 -547.7,631.3 
			-569.3,631.3 -569.3,614.4 -590.9,614.4 -590.9,631.3 -612.5,631.3 -612.5,614.4 -634.1,614.4 -634.1,631.3 -655.7,631.3 
			-655.7,614.4 -677.3,614.4 -677.3,631.3 -698.9,631.3 -698.9,614.4 -720.5,614.4 -720.5,631.3 -742.1,631.3 -742.1,614.4 
			-763.7,614.4 -763.7,631.3 -794.9,631.3 -794.9,614.4 -809.2,614.4 -809.2,594.7 -826.1,594.7 -826.1,558 -809.2,558 
			-809.2,536.4 -826.1,536.4 -826.1,514.8 -809.2,514.8 -809.2,493.2 -826.1,493.2 -826.1,471.6 -809.2,471.6 -809.2,450 
			-826.1,450 -826.1,428.4 -809.2,428.4 -809.2,406.8 -826.1,406.8 -826.1,385.2 -809.2,385.2 -809.2,363.6 -826.1,363.6 
			-826.1,327 -809.2,327 -809.2,307.3 -794.9,307.3 -794.9,290.4 -763.7,290.4 -763.7,307.3 -742.1,307.3 -742.1,290.4 
			-720.5,290.4 -720.5,307.3 -698.9,307.3 -698.9,290.4 -677.3,290.4 -677.3,307.3 -655.7,307.3 -655.7,290.4 -634.1,290.4 
			-634.1,307.3 -612.5,307.3 -612.5,290.4 -590.9,290.4 -590.9,307.3 -569.3,307.3 -569.3,290.4 -547.7,290.4 -547.7,307.3 
			-526.1,307.3 -526.1,290.4 -504.5,290.4 -504.5,307.3 -482.9,307.3 -482.9,290.4 -461.3,290.4 -461.3,307.3 -439.7,307.3 
			-439.7,290.4 -418.1,290.4 -418.1,307.3 -396.5,307.3 -396.5,290.4 -374.9,290.4 -374.9,307.3 -353.3,307.3 -353.3,290.4 
			-331.7,290.4 -331.7,307.3 -310.1,307.3 -310.1,290.4 -288.5,290.4 -288.5,307.3 -266.9,307.3 -266.9,290.4 -245.3,290.4 
			-245.3,307.3 -223.7,307.3 -223.7,290.4 -192.4,290.4 -192.4,307.3 -161.2,307.3 -161.2,327 -161.2,327 -161.2,363.6 		"/>
		<polyline class="st0" points="-288.5,631.3 -310.1,631.3 -310.1,614.4 -331.7,614.4 -331.7,631.3 -353.3,631.3 -353.3,614.4 
			-374.9,614.4 -374.9,631.3 -396.5,631.3 -396.5,614.4 -418.1,614.4 -418.1,631.3 -439.7,631.3 -439.7,614.4 -461.3,614.4 
			-461.3,631.3 -482.9,631.3 -482.9,614.4 -504.5,614.4 -504.5,631.3 -526.1,631.3 -526.1,614.4 -547.7,614.4 -547.7,631.3 
			-569.3,631.3 -569.3,614.4 -590.9,614.4 -590.9,631.3 -612.5,631.3 -612.5,614.4 -634.1,614.4 -634.1,631.3 -655.7,631.3 
			-655.7,614.4 -677.3,614.4 -677.3,631.3 -698.9,631.3 -698.9,614.4 -720.5,614.4 -720.5,631.3 -742.1,631.3 -742.1,614.4 
			-763.7,614.4 -763.7,631.3 -794.9,631.3 -794.9,614.4 -809.2,614.4 -809.2,594.7 -826.1,594.7 -826.1,558 -809.2,558 
			-809.2,536.4 -826.1,536.4 -826.1,514.8 -809.2,514.8 -809.2,493.2 -826.1,493.2 -826.1,471.6 -809.2,471.6 -809.2,450 
			-826.1,450 -826.1,428.4 -809.2,428.4 -809.2,406.8 -826.1,406.8 -826.1,385.2 -809.2,385.2 -809.2,363.6 -826.1,363.6 
			-826.1,327 -809.2,327 -809.2,307.3 -794.9,307.3 -794.9,290.4 -763.7,290.4 -763.7,307.3 -742.1,307.3 -742.1,290.4 
			-720.5,290.4 -720.5,307.3 -698.9,307.3 -698.9,290.4 -677.3,290.4 -677.3,307.3 -655.7,307.3 -655.7,290.4 -634.1,290.4 
			-634.1,307.3 -612.5,307.3 -612.5,290.4 -590.9,290.4 -590.9,307.3 -569.3,307.3 -569.3,290.4 -547.7,290.4 -547.7,307.3 
			-526.1,307.3 -526.1,290.4 -504.5,290.4 -504.5,307.3 -482.9,307.3 -482.9,290.4 -461.3,290.4 -461.3,307.3 -439.7,307.3 
			-439.7,290.4 -418.1,290.4 -418.1,307.3 -396.5,307.3 -396.5,290.4 -374.9,290.4 -374.9,307.3 -353.3,307.3 -353.3,290.4 
			-331.7,290.4 -331.7,307.3 -310.1,307.3 -310.1,290.4 -288.5,290.4 -288.5,307.3 -266.9,307.3 -266.9,290.4 -245.3,290.4 
			-245.3,307.3 -223.7,307.3 -223.7,290.4 -192.4,290.4 -192.4,307.3 -161.2,307.3 -161.2,327 -161.2,327 -161.2,363.6 		"/>
	</g>
	<line class="st0" x1="692.5" y1="1147.5" x2="565.2" y2="1147.5"/>
</g>
<line class="st0" x1="27.6" y1="428.5" x2="44.5" y2="428.5"/>
<line class="st0" x1="27.6" y1="823.5" x2="44.5" y2="823.5"/>
<g>
	<g>
		<g transform="translate(853.74, 516.24) ">
			<path class="st0" d="M-161.2-144"/>
			<polyline class="st0" points="-161.2,-144 -161.2,-107.4 -161.2,-107.4 -161.2,-87.7 -192.4,-87.7 -192.4,-70.8 -223.7,-70.8 
				-223.7,-87.7 -245.3,-87.7 -245.3,-70.8 -266.9,-70.8 -266.9,-87.7 -288.5,-87.7 -288.5,-70.8 -310.1,-70.8 -310.1,-87.7 
				-331.7,-87.7 -331.7,-70.8 -353.3,-70.8 -353.3,-87.7 -374.9,-87.7 -374.9,-70.8 -396.5,-70.8 -396.5,-87.7 -418.1,-87.7 
				-418.1,-70.8 -439.7,-70.8 -439.7,-87.7 -461.3,-87.7 -461.3,-70.8 -482.9,-70.8 -482.9,-87.7 -504.5,-87.7 -504.5,-70.8 
				-526.1,-70.8 -526.1,-87.7 -547.7,-87.7 -547.7,-70.8 -569.3,-70.8 -569.3,-87.7 -590.9,-87.7 -590.9,-70.8 -612.5,-70.8 
				-612.5,-87.7 -634.1,-87.7 -634.1,-70.8 -655.7,-70.8 -655.7,-87.7 -677.3,-87.7 -677.3,-70.8 -698.9,-70.8 -698.9,-87.7 
				-720.5,-87.7 -720.5,-70.8 -742.1,-70.8 -742.1,-87.7 -763.7,-87.7 -763.7,-70.8 -794.9,-70.8 -794.9,-87.7 -809.2,-87.7 
				-809.2,-107.4 -826.1,-107.4 -826.1,-144 -809.2,-144 -809.2,-165.6 -826.1,-165.6 -826.1,-187.2 -809.2,-187.2 -809.2,-208.8 
				-826.1,-208.8 -826.1,-230.4 -809.2,-230.4 -809.2,-252 -826.1,-252 -826.1,-273.6 -809.2,-273.6 -809.2,-295.2 -826.1,-295.2 
				-826.1,-316.8 -809.2,-316.8 -809.2,-338.4 -826.1,-338.4 -826.1,-375.1 -809.2,-375.1 -809.2,-394.8 -794.9,-394.8 
				-794.9,-411.7 -763.7,-411.7 -763.7,-394.8 -742.1,-394.8 -742.1,-411.7 -720.5,-411.7 -720.5,-394.8 -698.9,-394.8 
				-698.9,-411.7 -677.3,-411.7 -677.3,-394.8 -655.7,-394.8 -655.7,-411.7 -634.1,-411.7 -634.1,-394.8 -612.5,-394.8 
				-612.5,-411.7 -590.9,-411.7 -590.9,-394.8 -569.3,-394.8 -569.3,-411.7 -547.7,-411.7 -547.7,-394.8 -526.1,-394.8 
				-526.1,-411.7 -504.5,-411.7 -504.5,-394.8 -482.9,-394.8 -482.9,-411.7 -461.3,-411.7 -461.3,-394.8 -439.7,-394.8 
				-439.7,-411.7 -418.1,-411.7 -418.1,-394.8 -396.5,-394.8 -396.5,-411.7 -374.9,-411.7 -374.9,-394.8 -353.3,-394.8 
				-353.3,-411.7 -331.7,-411.7 -331.7,-394.8 -310.1,-394.8 -310.1,-411.7 -288.5,-411.7 			"/>
			<polyline class="st0" points="-161.2,-144 -161.2,-107.4 -161.2,-107.4 -161.2,-87.7 -192.4,-87.7 -192.4,-70.8 -223.7,-70.8 
				-223.7,-87.7 -245.3,-87.7 -245.3,-70.8 -266.9,-70.8 -266.9,-87.7 -288.5,-87.7 -288.5,-70.8 -310.1,-70.8 -310.1,-87.7 
				-331.7,-87.7 -331.7,-70.8 -353.3,-70.8 -353.3,-87.7 -374.9,-87.7 -374.9,-70.8 -396.5,-70.8 -396.5,-87.7 -418.1,-87.7 
				-418.1,-70.8 -439.7,-70.8 -439.7,-87.7 -461.3,-87.7 -461.3,-70.8 -482.9,-70.8 -482.9,-87.7 -504.5,-87.7 -504.5,-70.8 
				-526.1,-70.8 -526.1,-87.7 -547.7,-87.7 -547.7,-70.8 -569.3,-70.8 -569.3,-87.7 -590.9,-87.7 -590.9,-70.8 -612.5,-70.8 
				-612.5,-87.7 -634.1,-87.7 -634.1,-70.8 -655.7,-70.8 -655.7,-87.7 -677.3,-87.7 -677.3,-70.8 -698.9,-70.8 -698.9,-87.7 
				-720.5,-87.7 -720.5,-70.8 -742.1,-70.8 -742.1,-87.7 -763.7,-87.7 -763.7,-70.8 -794.9,-70.8 -794.9,-87.7 -809.2,-87.7 
				-809.2,-107.4 -826.1,-107.4 -826.1,-144 -809.2,-144 -809.2,-165.6 -826.1,-165.6 -826.1,-187.2 -809.2,-187.2 -809.2,-208.8 
				-826.1,-208.8 -826.1,-230.4 -809.2,-230.4 -809.2,-252 -826.1,-252 -826.1,-273.6 -809.2,-273.6 -809.2,-295.2 -826.1,-295.2 
				-826.1,-316.8 -809.2,-316.8 -809.2,-338.4 -826.1,-338.4 -826.1,-375.1 -809.2,-375.1 -809.2,-394.8 -794.9,-394.8 
				-794.9,-411.7 -763.7,-411.7 -763.7,-394.8 -742.1,-394.8 -742.1,-411.7 -720.5,-411.7 -720.5,-394.8 -698.9,-394.8 
				-698.9,-411.7 -677.3,-411.7 -677.3,-394.8 -655.7,-394.8 -655.7,-411.7 -634.1,-411.7 -634.1,-394.8 -612.5,-394.8 
				-612.5,-411.7 -590.9,-411.7 -590.9,-394.8 -569.3,-394.8 -569.3,-411.7 -547.7,-411.7 -547.7,-394.8 -526.1,-394.8 
				-526.1,-411.7 -504.5,-411.7 -504.5,-394.8 -482.9,-394.8 -482.9,-411.7 -461.3,-411.7 -461.3,-394.8 -439.7,-394.8 
				-439.7,-411.7 -418.1,-411.7 -418.1,-394.8 -396.5,-394.8 -396.5,-411.7 -374.9,-411.7 -374.9,-394.8 -353.3,-394.8 
				-353.3,-411.7 -331.7,-411.7 -331.7,-394.8 -310.1,-394.8 -310.1,-411.7 -161.2,-411.7 			"/>
			<polyline class="st0" points="-161.2,-144 -161.2,-107.4 -161.2,-107.4 -161.2,-87.7 -192.4,-87.7 -192.4,-70.8 -223.7,-70.8 
				-223.7,-87.7 -245.3,-87.7 -245.3,-70.8 -266.9,-70.8 -266.9,-87.7 -288.5,-87.7 -288.5,-70.8 -310.1,-70.8 -310.1,-87.7 
				-331.7,-87.7 -331.7,-70.8 -353.3,-70.8 -353.3,-87.7 -374.9,-87.7 -374.9,-70.8 -396.5,-70.8 -396.5,-87.7 -418.1,-87.7 
				-418.1,-70.8 -439.7,-70.8 -439.7,-87.7 -461.3,-87.7 -461.3,-70.8 -482.9,-70.8 -482.9,-87.7 -504.5,-87.7 -504.5,-70.8 
				-526.1,-70.8 -526.1,-87.7 -547.7,-87.7 -547.7,-70.8 -569.3,-70.8 -569.3,-87.7 -590.9,-87.7 -590.9,-70.8 -612.5,-70.8 
				-612.5,-87.7 -634.1,-87.7 -634.1,-70.8 -655.7,-70.8 -655.7,-87.7 -677.3,-87.7 -677.3,-70.8 -698.9,-70.8 -698.9,-87.7 
				-720.5,-87.7 -720.5,-70.8 -742.1,-70.8 -742.1,-87.7 -763.7,-87.7 -763.7,-70.8 -794.9,-70.8 -794.9,-87.7 -809.2,-87.7 
				-809.2,-107.4 -826.1,-107.4 -826.1,-144 -809.2,-144 -809.2,-165.6 -826.1,-165.6 -826.1,-187.2 -809.2,-187.2 -809.2,-208.8 
				-826.1,-208.8 -826.1,-230.4 -809.2,-230.4 -809.2,-252 -826.1,-252 -826.1,-273.6 -809.2,-273.6 -809.2,-295.2 -826.1,-295.2 
				-826.1,-316.8 -809.2,-316.8 -809.2,-338.4 -826.1,-338.4 -826.1,-375.1 -809.2,-375.1 -809.2,-394.8 -794.9,-394.8 
				-794.9,-411.7 -763.7,-411.7 -763.7,-394.8 -742.1,-394.8 -742.1,-411.7 -720.5,-411.7 -720.5,-394.8 -698.9,-394.8 
				-698.9,-411.7 -677.3,-411.7 -677.3,-394.8 -655.7,-394.8 -655.7,-411.7 -634.1,-411.7 -634.1,-394.8 -612.5,-394.8 
				-612.5,-411.7 -590.9,-411.7 -590.9,-394.8 -569.3,-394.8 -569.3,-411.7 -547.7,-411.7 -547.7,-394.8 -526.1,-394.8 
				-526.1,-411.7 -504.5,-411.7 -504.5,-394.8 -482.9,-394.8 -482.9,-411.7 -461.3,-411.7 -461.3,-394.8 -439.7,-394.8 
				-439.7,-411.7 -418.1,-411.7 -418.1,-394.8 -396.5,-394.8 -396.5,-411.7 -374.9,-411.7 -374.9,-394.8 -353.3,-394.8 
				-353.3,-411.7 -331.7,-411.7 -331.7,-394.8 -310.1,-394.8 -310.1,-411.7 -161.2,-411.7 			"/>
		</g>
	</g>
	<path class="st0" d="M692.5,104.5"/>
	<path class="st0" d="M692.5,104.5"/>
	<line class="st0" x1="692.5" y1="104.5" x2="692.5" y2="372.2"/>
	<line class="st0" x1="692.5" y1="104.5" x2="692.5" y2="372.2"/>
</g>
<line class="st0" x1="692.5" y1="31.5" x2="692.5" y2="104.5"/>
<g>
	<g>
		<g id="_Group_">
			<g id="_Group_2">
				<g id="_Group_3">
					<path id="_Path_" class="st1" d="M216.1,745l2.6-1.5l0,0l-0.1-0.1l-0.2-0.2c0,0,0,0,0-0.1l-0.1-0.1l-0.1-0.1
						c-0.1-0.1-0.2-0.2-0.3-0.3l-0.1-0.2c0,0,0,0,0,0l0,0l-0.1-0.1l-0.2-0.2c-0.1-0.1-0.1-0.1-0.2-0.2c-0.1-0.1-0.3-0.2-0.4-0.3
						c0,0-0.1-0.1-0.1-0.1l-0.1-0.1l-0.2-0.1L216,741l-0.2-0.1c0,0,0,0,0,0l-0.1,0l-0.1,0c-0.1,0-0.1,0-0.2-0.1l-0.2-0.1
						c-0.1,0-0.2-0.1-0.3-0.1l-0.1,0l-0.1,0l-0.2,0l-2.4,1.9l0.2,0l0.1,0l0.1,0c0.1,0,0.2,0,0.3,0.1c0.6,0.1,1.1,0.4,1.5,0.7
						c0.5,0.3,0.9,0.7,1.3,1.2c0.2,0.2,0.3,0.3,0.4,0.4L216.1,745L216.1,745z"/>
					<path id="_Path_2" class="st1" d="M219.5,751.6l2.5-0.9c0,0-0.1-0.3-0.3-0.8c-0.1-0.2-0.2-0.5-0.3-0.8s-0.2-0.6-0.3-0.9
						l-0.2-0.5c0-0.1-0.1-0.2-0.1-0.2l-0.1-0.2l-0.1-0.2c0-0.1-0.1-0.1-0.1-0.2l-0.2-0.4l-0.3-0.5c0-0.1-0.1-0.1-0.1-0.2l0-0.1
						l-2.6,1.4l0,0c0,0,0,0.1,0.1,0.1l0.3,0.5c0.1,0.2,0.2,0.5,0.3,0.7c0.1,0.3,0.3,0.5,0.4,0.8c0.3,0.6,0.5,1.1,0.7,1.6
						C219.4,751.3,219.5,751.6,219.5,751.6z"/>
					<path id="_Path_3" class="st1" d="M221.8,758.7l2.1-0.5c0,0-0.2-1.3-0.5-2.6c-0.1-0.6-0.3-1.3-0.4-1.8l-0.2-0.6l-0.1-0.2
						l-2.4,0.7l0.1,0.2l0.2,0.5c0.1,0.5,0.3,1.1,0.5,1.7C221.5,757.5,221.8,758.7,221.8,758.7z"/>
					<path id="_Path_4" class="st1" d="M223.5,766.2l1.7-0.3l0-0.2l-0.1-0.6c-0.1-0.5-0.1-1.1-0.2-1.8l-0.1-0.9l-0.1-0.8l-0.1-0.8
						l-2,0.4l0.2,0.8l0.2,0.8l0.2,0.9c0.1,0.6,0.3,1.3,0.4,1.7l0.1,0.6L223.5,766.2z"/>
					<path id="_Path_5" class="st1" d="M224.7,773.7l1.2-0.1c0,0-0.1-1.3-0.2-2.6c-0.1-0.6-0.1-1.3-0.2-1.8l-0.1-0.6l0-0.2l-1.5,0.2
						l0,0.2l0.1,0.6c0.1,0.5,0.2,1.1,0.3,1.7C224.6,772.5,224.7,773.7,224.7,773.7z"/>
					<path id="_Path_6" class="st1" d="M225.6,781.4l0.7,0c0,0,0-1.3-0.1-2.6s-0.1-2.6-0.1-2.6l-1,0.1c0,0,0.2,1.3,0.3,2.6
						C225.5,780.1,225.6,781.4,225.6,781.4z"/>
					<path id="_Path_7" class="st1" d="M226.1,789h0.2c0,0,0-1.3,0-2.6c0-1.3,0-2.6,0-2.6l-0.5,0c0,0,0.1,1.3,0.2,2.6
						C226,787.8,226.1,789,226.1,789z"/>
				</g>
			</g>
		</g>
		<g>
			<path class="st1" d="M184.1,734.6c0,0-0.5,0-1.2,0c-0.4,0-0.8,0-1.2,0.1c-0.5,0-0.9,0.1-1.4,0.1l-0.7,0.1c-0.2,0-0.5,0-0.7,0.1
				l-0.6,0.1c-0.2,0-0.4,0.1-0.6,0.1l-0.9,0.1c-0.2,0-0.3,0.1-0.3,0.1l0.4,2.5c0,0,0.1,0,0.3,0l0.8-0.1c0.2,0,0.4,0,0.5-0.1l0.6-0.1
				c0.2,0,0.4,0,0.7-0.1l0.7-0.1c0.5,0,0.9,0,1.3-0.1c0.4,0,0.8,0,1.2,0c0.7,0,1.1,0,1.1,0V734.6z"/>
			<path class="st1" d="M172.5,736.3c-0.2,0.1-0.5,0.1-0.8,0.2c-0.3,0.1-0.7,0.2-1.2,0.4l-0.7,0.2l-0.3,0.1l-0.3,0.1l-0.7,0.2
				c-0.2,0.1-0.4,0.2-0.6,0.3l-0.6,0.2l-0.5,0.2c-0.3,0.1-0.6,0.3-0.8,0.3l-0.3,0.1l0.8,1.9l0.3-0.1c0.2-0.1,0.5-0.2,0.8-0.3
				l0.5-0.2l0.6-0.2c0.2-0.1,0.4-0.1,0.6-0.2l0.6-0.2l0.3-0.1l0.3-0.1l0.6-0.2c0.4-0.1,0.8-0.2,1.1-0.3s0.6-0.1,0.8-0.2l0.3-0.1
				l-0.6-2.3L172.5,736.3z"/>
			<path class="st1" d="M162,740.7c-0.2,0.1-0.4,0.3-0.7,0.4l-0.5,0.3l-0.5,0.3c-0.2,0.1-0.4,0.2-0.6,0.4l-0.6,0.4l-0.3,0.2
				l-0.3,0.2l-0.6,0.4c-0.4,0.3-0.7,0.5-1,0.7c-0.3,0.2-0.5,0.4-0.7,0.5l-0.3,0.2l1,1.4l0.3-0.2c0.2-0.1,0.4-0.3,0.7-0.5
				c0.3-0.2,0.6-0.4,1-0.7l0.6-0.4l0.3-0.2l0.3-0.2l0.6-0.4c0.2-0.1,0.4-0.2,0.6-0.3l0.5-0.3l0.5-0.3c0.3-0.2,0.6-0.3,0.7-0.4
				l0.3-0.1l-0.9-1.8L162,740.7z"/>
			<path class="st1" d="M151.3,748.8l-0.5,0.5c-0.2,0.2-0.3,0.3-0.5,0.5c-0.6,0.7-1.3,1.4-1.7,1.9l-0.6,0.7l-0.2,0.2l1,0.9l0.2-0.2
				l0.6-0.6c0.5-0.5,1.1-1.2,1.8-1.8c0.2-0.2,0.3-0.3,0.5-0.5l0.5-0.5l0.9-0.8l0.9-0.8l-1-1.2l-0.9,0.8L151.3,748.8z"/>
			<path class="st1" d="M145,756.6l-0.3,0.5l-0.2,0.3l-0.2,0.3c-0.2,0.4-0.5,0.8-0.7,1.2l-0.4,0.6l-0.3,0.6
				c-0.1,0.2-0.2,0.4-0.3,0.6l-0.3,0.5l-0.2,0.4c-0.1,0.1-0.1,0.2-0.2,0.3l-0.1,0.3l0.8,0.4l0.2-0.3c0-0.1,0.1-0.2,0.2-0.3l0.2-0.4
				l0.3-0.5c0.1-0.2,0.2-0.3,0.3-0.5l0.3-0.6l0.4-0.6c0.2-0.4,0.5-0.8,0.7-1.1l0.2-0.3l0.2-0.2l0.3-0.5c0.2-0.3,0.4-0.5,0.5-0.7
				l0.2-0.3l-1-0.7l-0.2,0.3C145.3,756,145.2,756.3,145,756.6z"/>
			<path class="st1" d="M140,766.1l-0.2,0.4l-0.2,0.5c-0.1,0.2-0.1,0.4-0.2,0.6l-0.2,0.6c-0.1,0.2-0.1,0.4-0.2,0.7
				c-0.1,0.2-0.2,0.4-0.2,0.7l-0.2,0.6c-0.1,0.4-0.2,0.8-0.3,1.2l-0.1,0.5c0,0.1-0.1,0.3-0.1,0.4l-0.1,0.3l0.5,0.1l0.1-0.3
				c0-0.1,0.1-0.2,0.1-0.4l0.1-0.5c0.1-0.3,0.2-0.7,0.4-1.1l0.2-0.6c0.1-0.2,0.2-0.4,0.2-0.6c0.1-0.2,0.2-0.4,0.2-0.6l0.3-0.6
				c0.1-0.2,0.2-0.4,0.2-0.6l0.2-0.5l0.2-0.4c0.1-0.1,0.1-0.2,0.2-0.3l0.1-0.3l-0.7-0.3l-0.1,0.3C140.1,765.8,140,765.9,140,766.1z"
				/>
			<path class="st1" d="M136.9,776.8c0,0.1,0,0.3-0.1,0.5c-0.1,0.7-0.3,1.6-0.4,2.6l-0.1,0.7c0,0.2,0,0.5-0.1,0.7
				c0,0.4-0.1,0.8-0.1,1.2l-0.1,0.8l0,0.3l0.1,0l0-0.3l0.1-0.8c0-0.3,0.1-0.8,0.1-1.2c0-0.2,0.1-0.4,0.1-0.7l0.1-0.7
				c0.1-0.9,0.3-1.8,0.4-2.5c0-0.2,0.1-0.3,0.1-0.5l0.1-0.4l0.1-0.3l-0.4-0.1l-0.1,0.3L136.9,776.8z"/>
		</g>
		<g id="_Group_8">
			<g id="_Group_9">
				<g id="_Group_10">
					<polygon id="_Path_15" class="st1" points="179.1,778.2 177.7,779 179.7,782.5 181.2,781.5 					"/>
					<g>
						<polygon class="st1" points="176.8,777.4 178.1,776.6 176,773.3 174.8,774 						"/>
						<polygon class="st1" points="173.9,772.3 174.9,771.6 172.8,768.3 171.9,768.9 						"/>
						<polygon class="st1" points="170.9,767.2 171.8,766.7 169.7,763.3 169,763.8 						"/>
						<polygon class="st1" points="168,762.1 168.7,761.7 166.6,758.4 166.1,758.7 						"/>
						<polygon class="st1" points="165.1,757 165.5,756.8 163.4,753.4 163.1,753.6 						"/>
						<polygon class="st1" points="160.2,748.5 162.2,751.9 162.4,751.8 160.3,748.5 						"/>
					</g>
				</g>
			</g>
		</g>
		<g id="_Group_11">
			<g id="_Group_12">
				<g id="_Group_13">
					<polygon id="_Path_22" class="st1" points="182.8,778.6 181.4,777.9 179.6,781.7 181.3,782.4 					"/>
					<g>
						<polygon class="st1" points="183.6,776.7 185.1,772.8 183.9,772.3 182.2,776.1 						"/>
						<polygon class="st1" points="185.9,771 187.5,767.1 186.5,766.7 184.7,770.5 						"/>
						<polygon class="st1" points="188.2,765.2 189.8,761.4 189,761.1 187.3,764.8 						"/>
						<polygon class="st1" points="190.6,759.5 192.1,755.7 191.6,755.4 189.9,759.2 						"/>
						<polygon class="st1" points="192.9,753.8 194.4,749.9 194.1,749.8 192.4,753.6 						"/>
						<polygon class="st1" points="195,748 195.2,748.1 196.7,744.2 196.7,744.2 						"/>
					</g>
				</g>
			</g>
		</g>
		<g>
			<path class="st1" d="M178.3,780.7c-1.1,0-2.2,0.1-2.2,0.1l0,3.3c0,0,1.1,0,2.2,0.1c1.1,0,2.2,0.1,2.2,0.1v-3.7
				C180.5,780.6,179.4,780.6,178.3,780.7z"/>
			<polygon class="st1" points="171.8,784 174,784 173.9,780.9 171.8,781 169.6,781.2 169.7,784 			"/>
			<path class="st1" d="M165.4,784c1.1,0,2.2,0,2.2,0l-0.1-2.6l-2.2,0.2l-2.2,0.2l0.1,2.3L165.4,784z"/>
			<path class="st1" d="M158.9,784.1c1.1,0,2.2-0.1,2.2-0.1l-0.1-2.1c0,0-1.1,0.1-2.2,0.2c-1.1,0.1-2.2,0.2-2.2,0.2l0.1,1.7
				C156.8,784.1,157.8,784.1,158.9,784.1z"/>
			<path class="st1" d="M154.5,782.7c0,0-1.1,0.1-2.2,0.3s-2.2,0.3-2.2,0.3l0.1,1.2c0,0,1.1-0.1,2.2-0.1c1.1-0.1,2.2-0.1,2.2-0.1
				L154.5,782.7z"/>
			<path class="st1" d="M145.9,784c-0.5,0.1-1.1,0.2-1.5,0.3l-0.7,0.1l0.1,0.7l0.7-0.1c0.4-0.1,0.9-0.1,1.5-0.2
				c1.1-0.1,2.2-0.2,2.2-0.2l-0.1-1C148.1,783.6,147,783.8,145.9,784z"/>
			<path class="st1" d="M141.1,785.1c-0.4,0.1-0.9,0.3-1.4,0.4c-0.5,0.2-1,0.4-1.4,0.5s-0.6,0.3-0.6,0.3l0.1,0.2
				c0,0,0.2-0.1,0.6-0.2c0.4-0.1,0.9-0.3,1.4-0.4c0.5-0.1,1.1-0.2,1.5-0.3c0.4-0.1,0.7-0.1,0.7-0.1l-0.1-0.5
				C141.7,785,141.4,785,141.1,785.1z"/>
		</g>
		<g>
			<path class="st1" d="M181.2,783.9c0,0,1.2,0,2.3-0.1s2.3,0,2.3,0l0.1-3.3c0,0-1.2-0.1-2.4-0.1c-1.2-0.1-2.4-0.1-2.4-0.1V783.9z"
				/>
			<path class="st1" d="M190.5,783.8c0.6,0,1.2,0,1.6,0l0.7,0l0.2-2.8l-0.7-0.1c-0.4,0-1-0.1-1.6-0.2c-1.2-0.1-2.4-0.2-2.4-0.2
				l-0.1,3.1C188.2,783.8,189.3,783.8,190.5,783.8z"/>
			<path class="st1" d="M197.5,784c1.2,0.1,2.3,0.2,2.3,0.2l0.3-2.3c0,0-1.2-0.2-2.4-0.3s-2.4-0.3-2.4-0.3l-0.2,2.6
				C195.1,783.9,196.3,784,197.5,784z"/>
			<path class="st1" d="M202.8,784.5c0.4,0,1,0.1,1.6,0.2c1.2,0.1,2.3,0.3,2.3,0.3l0.3-1.7c0,0-1.2-0.2-2.3-0.5
				c-0.6-0.1-1.2-0.2-1.6-0.3l-0.7-0.1l-0.3,2.1L202.8,784.5z"/>
			<path class="st1" d="M209.7,785.4c0.2,0,0.5,0.1,0.7,0.1s0.6,0.1,0.8,0.2s0.6,0.1,0.8,0.2s0.5,0.1,0.7,0.1l0.5,0.1l0.2,0l0.3-1.2
				l-0.2-0.1l-0.5-0.1c-0.2-0.1-0.5-0.1-0.7-0.2c-0.3-0.1-0.6-0.2-0.8-0.2c-0.3-0.1-0.6-0.1-0.8-0.2c-0.3-0.1-0.5-0.1-0.7-0.2
				c-0.4-0.1-0.7-0.2-0.7-0.2l-0.3,1.5C209,785.2,209.3,785.3,209.7,785.4z"/>
			<path class="st1" d="M216,786.7c0.1,0,0.3,0.1,0.5,0.1c0.4,0.1,1,0.3,1.5,0.4s1.1,0.4,1.5,0.5l0.5,0.2c0.1,0,0.2,0.1,0.2,0.1
				l0.3-0.6c0,0-0.1,0-0.2-0.1l-0.5-0.2c-0.4-0.2-1-0.4-1.5-0.6c-0.6-0.2-1.1-0.4-1.5-0.6c-0.2-0.1-0.4-0.1-0.5-0.2l-0.2-0.1l-0.3,1
				L216,786.7z"/>
			<path class="st1" d="M222.6,789l0.2,0.1l0.3,0.1c0.5,0.2,0.9,0.5,1.4,0.8c0.4,0.3,0.8,0.6,1.2,1c0.1,0.1,0.1,0.2,0.2,0.2
				c0.1,0.1,0.1,0.1,0.2,0.2l0.1,0.2l0.1-0.1l-0.1-0.2c0-0.1-0.1-0.1-0.1-0.2c-0.1-0.1-0.1-0.2-0.2-0.2c-0.4-0.4-0.8-0.8-1.2-1.1
				c-0.4-0.3-0.9-0.7-1.3-1l-0.3-0.2l-0.2-0.1l-0.2-0.1l-0.2,0.5L222.6,789z"/>
		</g>
	</g>
	<ellipse id="_Path_43" class="st1" cx="136.3" cy="786.2" rx="4" ry="4.1"/>
	<ellipse id="_Path_44" class="st1" cx="225.8" cy="790.3" rx="4.4" ry="4.4"/>
	<ellipse id="_Path_45" class="st1" cx="157.8" cy="744.9" rx="4.2" ry="4.3"/>
	<ellipse id="_Path_46" class="st1" cx="181.1" cy="781.9" rx="4.3" ry="4.5"/>
	<g>
		<path d="M198.9,725.8c-0.2,0.4-0.4,0.7-0.6,1.1c-0.8,1.5-1.7,3.1-2.5,4.6c-0.7,1.2-1.3,2.5-2,3.7c-0.8,1.4-1.5,2.8-2.3,4.2
			c-0.2,0.3-0.2,0.3,0.2,0.5c0.8,0.3,1.5,0.6,2.3,0.9c0.6,0.2,1.1,0.3,1.7,0.5c0.4,0.1,0.9,0.2,1.3,0.3c0.7,0.1,1.5,0.2,2.2,0.3
			c1,0.1,1.9,0.2,2.9,0.1c1.1-0.1,2.1-0.1,3.2-0.3c1.3-0.2,2.5-0.5,3.7-0.9c0.9-0.3,1.8-0.7,2.6-1.1c0.8-0.4,1.6-0.9,2.5-1.3
			c-2.8-4.3-5.6-8.6-8.3-13c-1,0.6-2.1,1-3.4,1.1C201.1,726.6,200,726.3,198.9,725.8z"/>
		<path d="M198.6,714.3c-2.8-4.3-5.5-8.6-8.3-12.9c-7,4.8-10.7,11.3-10.8,19.9c5.3-0.3,10.6-0.7,15.9-1
			C195.3,717.7,196.5,715.8,198.6,714.3z"/>
		<path d="M205.4,713.9c1.1,0.5,1.9,1.3,2.6,2.3c0.6,1,1,2.1,1,3.2c5.3-0.3,10.6-0.7,15.9-1c-0.5-8.4-4.5-14.5-11.9-18.5
			C210.4,704.6,207.9,709.3,205.4,713.9z"/>
		<path d="M205.1,716.4c-0.8-0.6-1.8-1-3-1c-0.4,0-1.1,0.1-1.7,0.4c-1.2,0.6-2,1.5-2.5,2.8c-0.3,1-0.3,2,0.1,2.9
			c0.5,1.3,1.5,2.1,2.8,2.6c0.6,0.2,1.2,0.2,1.9,0.1c1.7-0.2,3-1.2,3.7-2.7c0.4-0.9,0.5-1.8,0.3-2.8
			C206.3,717.8,205.8,717,205.1,716.4z"/>
	</g>
	<g>
		<path class="st2" d="M193.4,742.6c-3-1-5.6-2.6-7.9-4.6c-2.3-2-4.1-4.5-5.5-7.5c-1.4-2.9-2.1-6.4-2.1-10.3c0-3.8,0.7-7.2,2.1-10.2
			s3.2-5.4,5.5-7.5c2.3-2,4.9-3.6,7.9-4.6c6-2.1,12.6-2.1,18.7,0c3,1,5.6,2.6,7.9,4.6s4.1,4.5,5.4,7.5c1.3,3,2,6.4,2,10.3
			c0,3.8-0.7,7.2-2,10.2s-3.2,5.4-5.4,7.5c-2.3,2-4.9,3.6-7.9,4.6C206,744.6,199.5,744.6,193.4,742.6z M211.4,740.7
			c2.8-0.9,5.2-2.3,7.3-4.2c2.1-1.9,3.8-4.1,5-6.8c1.3-2.7,1.9-5.8,1.9-9.4c0-3.5-0.6-6.6-1.9-9.3c-1.3-2.7-2.9-5-5-6.8
			c-2.1-1.8-4.5-3.2-7.3-4.2c-2.8-0.9-5.7-1.4-8.6-1.4c-2.9,0-5.8,0.5-8.5,1.4c-2.8,0.9-5.2,2.3-7.3,4.2c-2.1,1.9-3.8,4.1-5.1,6.8
			c-1.3,2.7-1.9,5.8-1.9,9.3c0,3.6,0.6,6.7,1.9,9.4c1.3,2.7,3,5,5.1,6.8c2.1,1.9,4.5,3.2,7.3,4.2c2.8,0.9,5.6,1.4,8.5,1.4
			C205.7,742.1,208.6,741.6,211.4,740.7L211.4,740.7z"/>
		<path class="st2" d="M208.1,653c-1.4,1-2.6,2.3-3.5,3.9c-0.9,1.6-1.6,3.4-2.2,5.5s-1,4.1-1.5,6.1c-0.7,2.9-1.3,5.4-1.7,7.6
			c-0.5,2-1,4.1-1.7,6c-0.7,1.8-1.6,3.2-2.9,4.3c-1.3,1.1-3,1.6-5.4,1.6c-0.4,0-1.2-0.1-2.3-0.4c-1.1-0.3-2.2-0.9-3.4-2
			c-1.1-1-2.1-2.6-3-4.7c-0.9-2.1-1.3-5.1-1.3-8.8c0-2.5,0.2-4.9,0.7-7c0.5-2.1,1.3-3.9,2.3-5.4c1-1.5,2.5-2.7,4.1-3.5
			c1.7-0.8,3.7-1.2,6.1-1.2v-2.1c-5.3,0-9.1,1.7-11.5,5.2s-3.6,8.1-3.6,14c0,3.3,0.4,6.1,1.1,8.4c0.7,2.3,1.7,4.1,2.8,5.6
			c1.2,1.4,2.5,2.5,3.9,3.1c1.4,0.6,2.8,0.9,4,0.9c2.6,0,4.6-0.5,6.2-1.5c1.5-1,2.7-2.6,3.6-4.8c0.6-1.5,1.2-3.2,1.7-5.1
			c0.5-1.9,1-4.2,1.6-6.7c0.5-2.3,1-4.5,1.5-6.7s1.1-4.1,2-5.8c0.8-1.7,1.9-3.1,3.2-4.1c1.3-1.1,3-1.6,5.1-1.6c2,0,3.7,0.5,5.1,1.6
			c1.4,1.1,2.6,2.4,3.4,4.1c0.9,1.6,1.5,3.5,1.9,5.5c0.4,2,0.6,3.9,0.6,5.9c0,6.3-1.2,11-3.7,14.4c-2.5,3.3-6.4,5-11.7,5v2.1
			c5.9,0,10.3-1.8,13-5.4c2.8-3.6,4.1-9,4.1-16c0-2.3-0.2-4.6-0.7-6.9c-0.5-2.3-1.2-4.4-2.3-6.2c-1-1.8-2.4-3.3-4-4.4
			c-1.7-1.1-3.7-1.7-6.1-1.7C211.4,651.5,209.6,652,208.1,653z"/>
		<path class="st2" d="M193.1,600.1c-3,0.9-5.7,2.2-8,4.1c-2.3,1.9-4.2,4.3-5.6,7.3c-1.4,3-2.1,6.5-2.1,10.7c0,3,0.6,5.9,1.7,8.7
			c1.1,2.8,2.7,5.3,4.8,7.4c2.1,2.1,4.7,3.8,7.8,5.2c3.1,1.3,6.6,2,10.5,2c3.5,0,6.7-0.4,9.8-1.3s5.7-2.3,7.9-4.1
			c2.2-1.9,4-4.2,5.2-7.2s1.8-6.4,1.7-10.6c0-6-1.5-11.1-4.6-15.2s-7.3-6.6-12.8-7.3v2.1c5.2,0.9,9.1,3.2,11.7,6.8
			c2.6,3.7,3.9,8.3,3.9,13.9c0,3.8-0.6,7-1.7,9.6c-1.2,2.6-2.8,4.7-4.8,6.4c-2,1.6-4.4,2.9-7.1,3.7s-5.7,1.2-8.9,1.3V599
			C199.3,598.9,196.1,599.3,193.1,600.1z M200.6,643.4c-3.3-0.2-6.3-0.9-8.9-2.1c-2.6-1.2-4.9-2.7-6.8-4.6c-1.9-1.9-3.3-4.1-4.3-6.6
			c-1-2.5-1.5-5.2-1.5-8.1c0-3.4,0.6-6.5,1.7-9.1c1.1-2.6,2.7-4.8,4.6-6.5c2-1.8,4.2-3.1,6.8-4c2.6-0.9,5.3-1.3,8.2-1.3V643.4z"/>
		<polygon class="st2" points="160.1,538 223.4,538 223.4,538.2 160.1,588.5 160.1,591.6 225.7,591.6 225.7,589.5 162.4,589.5 
			162.4,589.3 225.7,539 225.7,535.9 160.1,535.9 		"/>
		<path class="st2" d="M193.1,483.2c-3,0.9-5.7,2.2-8,4.1c-2.3,1.9-4.2,4.3-5.6,7.3c-1.4,3-2.1,6.5-2.1,10.7c0,3,0.6,5.9,1.7,8.7
			c1.1,2.8,2.7,5.3,4.8,7.4c2.1,2.1,4.7,3.8,7.8,5.2c3.1,1.3,6.6,2,10.5,2c3.5,0,6.7-0.4,9.8-1.3s5.7-2.3,7.9-4.1
			c2.2-1.9,4-4.2,5.2-7.2c1.2-2.9,1.8-6.4,1.7-10.6c0-6-1.5-11.1-4.6-15.2c-3-4.1-7.3-6.6-12.8-7.3v2.1c5.2,0.9,9.1,3.2,11.7,6.8
			s3.9,8.3,3.9,13.9c0,3.8-0.6,7-1.7,9.6c-1.2,2.6-2.8,4.7-4.8,6.4c-2,1.6-4.4,2.9-7.1,3.7c-2.7,0.8-5.7,1.2-8.9,1.3v-44.3
			C199.3,482,196.1,482.4,193.1,483.2z M200.6,526.5c-3.3-0.2-6.3-0.9-8.9-2.1c-2.6-1.2-4.9-2.7-6.8-4.6c-1.9-1.9-3.3-4.1-4.3-6.6
			c-1-2.5-1.5-5.2-1.5-8.1c0-3.4,0.6-6.5,1.7-9.1c1.1-2.6,2.7-4.8,4.6-6.5s4.2-3.1,6.8-4v0c2.6-0.9,5.3-1.3,8.2-1.3V526.5z"/>
		<path class="st2" d="M180.3,454.9h-1.8v12h-14.9v2.1h14.9v9.7h1.8v-9.7h36.6c3.4,0,5.7-0.8,6.9-2.5c1.3-1.7,1.9-3.7,1.9-6.1
			c0-1.6,0-2.7-0.1-3.2c-0.1-0.6-0.1-1.2-0.2-1.8h-1.8c0.1,0.3,0.2,0.9,0.2,1.8c0,0.8,0,1.8,0,2.8c0,0.8,0,1.7-0.1,2.5
			c-0.1,0.8-0.4,1.6-0.9,2.3c-0.5,0.7-1.2,1.3-2.2,1.7c-1,0.4-2.4,0.7-4.1,0.7h-36.2V454.9z"/>
	</g>
</g>
</svg>
