<?xml version="1.0" encoding="utf-8"?>
<!-- Generator: Adobe Illustrator 19.2.1, SVG Export Plug-In . SVG Version: 6.00 Build 0)  -->
<svg version="1.1" id="Layer_1" xmlns="http://www.w3.org/2000/svg" xmlns:xlink="http://www.w3.org/1999/xlink" x="0px" y="0px"
	 viewBox="0 0 2309 1151" style="enable-background:new 0 0 2309 1151;" xml:space="preserve">
<style type="text/css">
	.st0{fill:none;stroke:#FF0000;stroke-width:1.000000e-003;stroke-miterlimit:10;}
	.st1{stroke:#000000;stroke-width:1.4224;stroke-miterlimit:10;}
	.st2{stroke:#000000;stroke-width:3.556;stroke-miterlimit:10;}
</style>
<title>DoseNet-logo-thickerfont</title>
<polyline class="st0" points="6.2,372.9 16,372.9 37,372.9 37,385 67.7,385 67.7,372.9 87.2,372.9 87.2,385 106.6,385 106.6,372.9 
	126.2,372.9 126.2,385 145.6,385 145.6,372.9 165,372.9 165,385 184.5,385 184.5,372.9 203.9,372.9 203.9,385 223.3,385 
	223.3,372.9 242.7,372.9 242.7,385 262.2,385 262.2,372.9 281.6,372.9 281.6,385 301,385 301,372.9 320.5,372.9 320.5,385 
	339.9,385 339.9,372.9 359.3,372.9 359.3,385 378.9,385 378.9,372.9 398.3,372.9 398.3,385 417.7,385 417.7,372.9 437.2,372.9 
	437.2,385 456.6,385 456.6,372.9 476,372.9 476,385 495.5,385 495.5,372.9 514.9,372.9 514.9,385 534.3,385 534.3,372.9 
	553.8,372.9 553.8,385 573.2,385 573.2,372.9 592.6,372.9 592.6,385 623.5,385 623.5,372.9 654.2,372.9 654.2,411.3 644.5,411.3 
	644.5,449.9 654.2,449.9 654.2,474.2 644.5,474.2 644.5,498.5 654.2,498.5 654.2,522.7 644.5,522.7 644.5,547 654.2,547 
	654.2,571.3 644.5,571.3 644.5,595.6 654.2,595.6 654.2,619.9 644.5,619.9 644.5,658.3 654.2,658.3 654.2,681.6 654.2,696.9 
	623.5,696.9 592.6,696.9 573.2,696.9 553.8,696.9 534.3,696.9 514.9,696.9 495.5,696.9 476,696.9 456.6,696.9 437.2,696.9 
	417.7,696.9 398.3,696.9 378.9,696.9 359.3,696.9 339.9,696.9 320.5,696.9 301,696.9 281.6,696.9 262.2,696.9 242.7,696.9 
	223.3,696.9 203.9,696.9 184.5,696.9 165,696.9 145.6,696.9 126.2,696.9 106.6,696.9 87.2,696.9 67.7,696.9 37,696.9 16,696.9 
	7.8,696.9 6.2,696.9 "/>
<polyline class="st0" points="1230.2,328 1240,328 1261,328 1261,315.9 1291.9,315.9 1291.9,328 1311.3,328 1311.3,315.9 
	1330.7,315.9 1330.7,328 1350.2,328 1350.2,315.9 1369.6,315.9 1369.6,328 1389,328 1389,315.9 1408.5,315.9 1408.5,328 1427.9,328 
	1427.9,315.9 1447.3,315.9 1447.3,328 1466.7,328 1466.7,315.9 1486.2,315.9 1486.2,328 1505.6,328 1505.6,315.9 1525.2,315.9 
	1525.2,328 1544.6,328 1544.6,315.9 1564,315.9 1564,328 1583.5,328 1583.5,315.9 1602.9,315.9 1602.9,328 1622.3,328 1622.3,315.9 
	1641.7,315.9 1641.7,328 1661.2,328 1661.2,315.9 1680.6,315.9 1680.6,328 1700,328 1700,315.9 1719.5,315.9 1719.5,328 1738.9,328 
	1738.9,315.9 1758.5,315.9 1758.5,328 1777.9,328 1777.9,315.9 1797.3,315.9 1797.3,328 1816.8,328 1816.8,315.9 1847.5,315.9 
	1847.5,328 1878.2,328 1878.2,289.5 1868.5,289.5 1868.5,251 1878.2,251 1878.2,226.8 1868.5,226.8 1868.5,202.5 1878.2,202.5 
	1878.2,178.2 1868.5,178.2 1868.5,153.9 1878.2,153.9 1878.2,129.6 1868.5,129.6 1868.5,105.3 1878.2,105.3 1878.2,80.9 
	1868.5,80.9 1868.5,42.5 1878.2,42.5 1878.2,19.3 1878.2,4 1847.5,4 1816.8,4 1797.3,4 1777.9,4 1758.5,4 1738.9,4 1719.5,4 1700,4 
	1680.6,4 1661.2,4 1641.7,4 1622.3,4 1602.9,4 1583.5,4 1564,4 1544.6,4 1525.2,4 1505.6,4 1486.2,4 1466.7,4 1447.3,4 1427.9,4 
	1408.5,4 1389,4 1369.6,4 1350.2,4 1330.7,4 1311.3,4 1291.9,4 1261,4 1240,4 1231.8,4 1230.2,4 "/>
<polyline class="st0" points="19.4,696.9 19.4,709 19.4,709 19.4,735.3 10.1,735.3 10.1,773.9 19.4,773.9 19.4,798.1 10.1,798.1 
	10.1,822.4 19.4,822.4 19.4,846.7 10.1,846.7 10.1,871 19.4,871 19.4,895.3 10.1,895.3 10.1,919.6 19.4,919.6 19.4,943.9 
	10.1,943.9 10.1,982.3 19.4,982.3 19.4,1008.7 33.3,1008.7 33.3,1020.9 56.6,1020.9 56.6,1008.7 75.2,1008.7 75.2,1020.9 
	93.9,1020.9 93.9,1008.7 112.5,1008.7 112.5,1020.9 131.1,1020.9 131.1,1008.7 149.7,1008.7 149.7,1020.9 168.4,1020.9 
	168.4,1008.7 187,1008.7 187,1020.9 205.6,1020.9 205.6,1008.7 224.2,1008.7 224.2,1020.9 242.8,1020.9 242.8,1008.7 261.4,1008.7 
	261.4,1020.9 280,1020.9 280,1008.7 298.6,1008.7 298.6,1020.9 317.2,1020.9 317.2,1008.7 335.8,1008.7 335.8,1020.9 359.2,1020.9 
	359.2,1008.7 373.1,1008.7 373.1,982.3 382.4,982.3 382.4,943.9 373.1,943.9 373.1,919.6 382.4,919.6 382.4,895.3 373.1,895.3 
	373.1,871 382.4,871 382.4,846.7 373.1,846.7 373.1,822.4 382.4,822.4 382.4,798.1 373.1,798.1 373.1,773.9 382.4,773.9 
	382.4,735.3 373.1,735.3 373.1,709 373.1,696.9 "/>
<g>
	<line class="st0" x1="1230.2" y1="381.5" x2="654.2" y2="381.5"/>
	<line class="st0" x1="654.2" y1="381.5" x2="654.2" y2="3.5"/>
	<line class="st0" x1="654.2" y1="3.5" x2="1230.2" y2="3.5"/>
	<line class="st0" x1="1230.2" y1="381.5" x2="1230.2" y2="3.5"/>
</g>
<polyline class="st0" points="6.3,19.1 6.3,33.1 16,33.1 16,56.3 6.3,56.3 6.3,74.9 16,74.9 16,93.5 6.3,93.5 6.3,112.1 16,112.1 
	16,130.9 6.3,130.9 6.3,149.5 16,149.5 16,168.1 6.3,168.1 6.3,186.7 16,186.7 16,205.3 6.3,205.3 6.3,223.9 16,223.9 16,242.5 
	6.3,242.5 6.3,261.1 16,261.1 16,279.7 6.3,279.7 6.3,298.3 16,298.3 16,316.9 6.3,316.9 6.3,335.5 16,335.5 16,358.9 6.3,358.9 
	6.3,372.9 "/>
<polyline class="st0" points="654.3,19.1 644.5,19.1 623.5,19.1 623.5,7 592.8,7 592.8,19.1 573.3,19.1 573.3,7 553.9,7 553.9,19.1 
	534.3,19.1 534.3,7 514.9,7 514.9,19.1 495.5,19.1 495.5,7 476,7 476,19.1 456.6,19.1 456.6,7 437.2,7 437.2,19.1 417.8,19.1 
	417.8,7 398.3,7 398.3,19.1 378.9,19.1 378.9,7 359.5,7 359.5,19.1 340,19.1 340,7 320.6,7 320.6,19.1 301.2,19.1 301.2,7 281.6,7 
	281.6,19.1 262.2,19.1 262.2,7 242.8,7 242.8,19.1 223.3,19.1 223.3,7 203.9,7 203.9,19.1 184.5,19.1 184.5,7 165,7 165,19.1 
	145.6,19.1 145.6,7 126.2,7 126.2,19.1 106.7,19.1 106.7,7 87.3,7 87.3,19.1 67.9,19.1 67.9,7 37,7 37,19.1 6.3,19.1 "/>
<line class="st0" x1="6.2" y1="696.9" x2="6.2" y2="372.9"/>
<g>
	<g>
		<g id="_Group_">
			<g id="_Group_2">
				<g id="_Group_3">
					<path id="_Path_" class="st1" d="M157.7,314.7l2.6-1.5l0,0l-0.1-0.1l-0.2-0.2c0,0,0,0,0-0.1l-0.1-0.1l-0.1-0.1
						c-0.1-0.1-0.2-0.2-0.3-0.3l-0.1-0.2c0,0,0,0,0,0l0,0l-0.1-0.1l-0.2-0.2c-0.1-0.1-0.1-0.1-0.2-0.2c-0.1-0.1-0.3-0.2-0.4-0.3
						c0,0-0.1-0.1-0.1-0.1l-0.1-0.1L158,311l-0.4-0.2l-0.2-0.1c0,0,0,0,0,0l-0.1,0l-0.1,0c-0.1,0-0.1,0-0.2-0.1l-0.2-0.1
						c-0.1,0-0.2-0.1-0.3-0.1l-0.1,0l-0.1,0l-0.2,0l-2.4,1.9l0.2,0l0.1,0l0.1,0c0.1,0,0.2,0,0.3,0.1c0.6,0.1,1.1,0.4,1.5,0.7
						c0.5,0.3,0.9,0.7,1.3,1.2c0.2,0.2,0.3,0.3,0.4,0.4L157.7,314.7L157.7,314.7z"/>
					<path id="_Path_2" class="st1" d="M161.1,321.3l2.5-0.9c0,0-0.1-0.3-0.3-0.8c-0.1-0.2-0.2-0.5-0.3-0.8s-0.2-0.6-0.3-0.9
						l-0.2-0.5c0-0.1-0.1-0.2-0.1-0.2l-0.1-0.2l-0.1-0.2c0-0.1-0.1-0.1-0.1-0.2l-0.2-0.4l-0.3-0.5c0-0.1-0.1-0.1-0.1-0.2l0-0.1
						l-2.6,1.4l0,0c0,0,0,0.1,0.1,0.1l0.3,0.5c0.1,0.2,0.2,0.5,0.3,0.7c0.1,0.3,0.3,0.5,0.4,0.8c0.3,0.6,0.5,1.1,0.7,1.6
						C160.9,321,161.1,321.3,161.1,321.3z"/>
					<path id="_Path_3" class="st1" d="M163.4,328.5l2.1-0.5c0,0-0.2-1.3-0.5-2.6c-0.1-0.6-0.3-1.3-0.4-1.8l-0.2-0.6l-0.1-0.2
						l-2.4,0.7l0.1,0.2l0.2,0.5c0.1,0.5,0.3,1.1,0.5,1.7C163.1,327.2,163.4,328.5,163.4,328.5z"/>
					<path id="_Path_4" class="st1" d="M165.1,335.9l1.7-0.3l0-0.2l-0.1-0.6c-0.1-0.5-0.1-1.1-0.2-1.8l-0.1-0.9l-0.1-0.8l-0.1-0.8
						l-2,0.4l0.2,0.8l0.2,0.8l0.2,0.9c0.1,0.6,0.3,1.3,0.4,1.7l0.1,0.6L165.1,335.9z"/>
					<path id="_Path_5" class="st1" d="M166.3,343.5l1.2-0.1c0,0-0.1-1.3-0.2-2.6c-0.1-0.6-0.1-1.3-0.2-1.8l-0.1-0.6l0-0.2l-1.5,0.2
						l0,0.2l0.1,0.6c0.1,0.5,0.2,1.1,0.3,1.7C166.1,342.2,166.3,343.5,166.3,343.5z"/>
					<path id="_Path_6" class="st1" d="M167.1,351.1l0.7,0c0,0,0-1.3-0.1-2.6c0-1.3-0.1-2.6-0.1-2.6l-1,0.1c0,0,0.2,1.3,0.3,2.6
						C167,349.8,167.1,351.1,167.1,351.1z"/>
					<path id="_Path_7" class="st1" d="M167.6,358.8h0.2c0,0,0-1.3,0-2.6c0-1.3,0-2.6,0-2.6l-0.5,0c0,0,0.1,1.3,0.2,2.6
						C167.6,357.5,167.6,358.8,167.6,358.8z"/>
				</g>
			</g>
		</g>
		<g>
			<path class="st1" d="M125.6,304.4c0,0-0.5,0-1.2,0c-0.4,0-0.8,0-1.2,0.1c-0.5,0-0.9,0.1-1.4,0.1l-0.7,0.1c-0.2,0-0.5,0-0.7,0.1
				l-0.6,0.1c-0.2,0-0.4,0.1-0.6,0.1l-0.9,0.1c-0.2,0-0.3,0.1-0.3,0.1l0.4,2.5c0,0,0.1,0,0.3,0l0.8-0.1c0.2,0,0.4,0,0.5-0.1l0.6-0.1
				c0.2,0,0.4,0,0.7-0.1l0.7-0.1c0.5,0,0.9,0,1.3-0.1c0.4,0,0.8,0,1.2,0c0.7,0,1.1,0,1.1,0V304.4z"/>
			<path class="st1" d="M114,306.1c-0.2,0.1-0.5,0.1-0.8,0.2c-0.3,0.1-0.7,0.2-1.2,0.4l-0.7,0.2L111,307l-0.3,0.1l-0.7,0.2
				c-0.2,0.1-0.4,0.2-0.6,0.3l-0.6,0.2l-0.5,0.2c-0.3,0.1-0.6,0.3-0.8,0.3l-0.3,0.1l0.8,1.9l0.3-0.1c0.2-0.1,0.5-0.2,0.8-0.3
				l0.5-0.2l0.6-0.2c0.2-0.1,0.4-0.1,0.6-0.2l0.6-0.2l0.3-0.1l0.3-0.1l0.6-0.2c0.4-0.1,0.8-0.2,1.1-0.3c0.3-0.1,0.6-0.1,0.8-0.2
				l0.3-0.1l-0.6-2.3L114,306.1z"/>
			<path class="st1" d="M103.5,310.4c-0.2,0.1-0.4,0.3-0.7,0.4l-0.5,0.3l-0.5,0.3c-0.2,0.1-0.4,0.2-0.6,0.4l-0.6,0.4l-0.3,0.2
				l-0.3,0.2l-0.6,0.4c-0.4,0.3-0.7,0.5-1,0.7c-0.3,0.2-0.5,0.4-0.7,0.5l-0.3,0.2l1,1.4l0.3-0.2c0.2-0.1,0.4-0.3,0.7-0.5
				c0.3-0.2,0.6-0.4,1-0.7l0.6-0.4l0.3-0.2l0.3-0.2l0.6-0.4c0.2-0.1,0.4-0.2,0.6-0.3l0.5-0.3l0.5-0.3c0.3-0.2,0.6-0.3,0.7-0.4
				l0.3-0.1l-0.9-1.8L103.5,310.4z"/>
			<path class="st1" d="M92.9,318.5l-0.5,0.5c-0.2,0.2-0.3,0.3-0.5,0.5c-0.6,0.7-1.3,1.4-1.7,1.9l-0.6,0.7l-0.2,0.2l1,0.9l0.2-0.2
				l0.6-0.6c0.5-0.5,1.1-1.2,1.8-1.8c0.2-0.2,0.3-0.3,0.5-0.5l0.5-0.5l0.9-0.8l0.9-0.8l-1-1.2l-0.9,0.8L92.9,318.5z"/>
			<path class="st1" d="M86.5,326.3l-0.3,0.5L86,327l-0.2,0.3c-0.2,0.4-0.5,0.8-0.7,1.2l-0.4,0.6l-0.3,0.6c-0.1,0.2-0.2,0.4-0.3,0.6
				l-0.3,0.5l-0.2,0.4c-0.1,0.1-0.1,0.2-0.2,0.3l-0.1,0.3l0.8,0.4l0.2-0.3c0-0.1,0.1-0.2,0.2-0.3l0.2-0.4l0.3-0.5
				c0.1-0.2,0.2-0.3,0.3-0.5l0.3-0.6L86,329c0.2-0.4,0.5-0.8,0.7-1.1l0.2-0.3l0.2-0.2l0.3-0.5c0.2-0.3,0.4-0.5,0.5-0.7l0.2-0.3
				l-1-0.7l-0.2,0.3C86.9,325.8,86.7,326,86.5,326.3z"/>
			<path class="st1" d="M81.5,335.8l-0.2,0.4l-0.2,0.5c-0.1,0.2-0.1,0.4-0.2,0.6l-0.2,0.6c-0.1,0.2-0.1,0.4-0.2,0.7
				c-0.1,0.2-0.2,0.4-0.2,0.7L80,340c-0.1,0.4-0.2,0.8-0.3,1.2l-0.1,0.5c0,0.1-0.1,0.3-0.1,0.4l-0.1,0.3l0.5,0.1l0.1-0.3
				c0-0.1,0.1-0.2,0.1-0.4l0.1-0.5c0.1-0.3,0.2-0.7,0.4-1.1l0.2-0.6c0.1-0.2,0.2-0.4,0.2-0.6c0.1-0.2,0.2-0.4,0.2-0.6l0.3-0.6
				c0.1-0.2,0.2-0.4,0.2-0.6l0.2-0.5l0.2-0.4c0.1-0.1,0.1-0.2,0.2-0.3l0.1-0.3l-0.7-0.3l-0.1,0.3C81.6,335.5,81.6,335.7,81.5,335.8z
				"/>
			<path class="st1" d="M78.5,346.5c0,0.1,0,0.3-0.1,0.5c-0.1,0.7-0.3,1.6-0.4,2.6l-0.1,0.7c0,0.2,0,0.5-0.1,0.7
				c0,0.4-0.1,0.8-0.1,1.2l-0.1,0.8l0,0.3l0.1,0l0-0.3l0.1-0.8c0-0.3,0.1-0.8,0.1-1.2c0-0.2,0.1-0.4,0.1-0.7l0.1-0.7
				c0.1-0.9,0.3-1.8,0.4-2.5c0-0.2,0.1-0.3,0.1-0.5l0.1-0.4l0.1-0.3l-0.4-0.1l-0.1,0.3L78.5,346.5z"/>
		</g>
		<g id="_Group_8">
			<g id="_Group_9">
				<g id="_Group_10">
					<polygon id="_Path_15" class="st1" points="120.7,347.9 119.3,348.8 121.3,352.2 122.8,351.3 					"/>
					<g>
						<polygon class="st1" points="118.3,347.1 119.6,346.3 117.5,343 116.4,343.7 						"/>
						<polygon class="st1" points="115.4,342 116.5,341.4 114.4,338 113.4,338.6 						"/>
						<polygon class="st1" points="112.5,336.9 113.3,336.4 111.2,333.1 110.5,333.5 						"/>
						<polygon class="st1" points="109.6,331.8 110.2,331.4 108.1,328.1 107.6,328.4 						"/>
						<polygon class="st1" points="106.6,326.7 107.1,326.5 105,323.2 104.7,323.3 						"/>
						<polygon class="st1" points="101.7,318.2 103.7,321.7 103.9,321.5 101.8,318.2 						"/>
					</g>
				</g>
			</g>
		</g>
		<g id="_Group_11">
			<g id="_Group_12">
				<g id="_Group_13">
					<polygon id="_Path_22" class="st1" points="124.4,348.3 122.9,347.7 121.2,351.4 122.8,352.1 					"/>
					<g>
						<polygon class="st1" points="125.1,346.4 126.7,342.6 125.5,342 123.7,345.8 						"/>
						<polygon class="st1" points="127.5,340.7 129,336.8 128,336.4 126.3,340.2 						"/>
						<polygon class="st1" points="129.8,334.9 131.3,331.1 130.6,330.8 128.8,334.5 						"/>
						<polygon class="st1" points="132.1,329.2 133.7,325.4 133.1,325.1 131.4,328.9 						"/>
						<polygon class="st1" points="134.4,323.5 136,319.7 135.7,319.5 134,323.3 						"/>
						<polygon class="st1" points="136.5,317.7 136.7,317.8 138.3,313.9 138.2,313.9 						"/>
					</g>
				</g>
			</g>
		</g>
		<g>
			<path class="st1" d="M119.8,350.4c-1.1,0-2.2,0.1-2.2,0.1l0,3.3c0,0,1.1,0,2.2,0.1s2.2,0.1,2.2,0.1v-3.7
				C122,350.3,120.9,350.3,119.8,350.4z"/>
			<polygon class="st1" points="113.4,353.7 115.5,353.8 115.5,350.6 113.3,350.8 111.1,350.9 111.2,353.7 			"/>
			<path class="st1" d="M106.9,353.7c1.1,0,2.2,0,2.2,0l-0.1-2.6l-2.2,0.2l-2.2,0.2l0.1,2.3L106.9,353.7z"/>
			<path class="st1" d="M100.5,353.8c1.1,0,2.2-0.1,2.2-0.1l-0.1-2.1c0,0-1.1,0.1-2.2,0.2s-2.2,0.2-2.2,0.2l0.1,1.7
				C98.3,353.9,99.4,353.8,100.5,353.8z"/>
			<path class="st1" d="M96.1,352.4c0,0-1.1,0.1-2.2,0.3c-1.1,0.2-2.2,0.3-2.2,0.3l0.1,1.2c0,0,1.1-0.1,2.2-0.1
				c1.1-0.1,2.2-0.1,2.2-0.1L96.1,352.4z"/>
			<path class="st1" d="M87.5,353.7c-0.5,0.1-1.1,0.2-1.5,0.3l-0.7,0.1l0.1,0.7l0.7-0.1c0.4-0.1,0.9-0.1,1.5-0.2
				c1.1-0.1,2.2-0.2,2.2-0.2l-0.1-1C89.6,353.3,88.6,353.5,87.5,353.7z"/>
			<path class="st1" d="M82.6,354.9c-0.4,0.1-0.9,0.3-1.4,0.4s-1,0.4-1.4,0.5s-0.6,0.3-0.6,0.3l0.1,0.2c0,0,0.2-0.1,0.6-0.2
				s0.9-0.3,1.4-0.4c0.5-0.1,1.1-0.2,1.5-0.3c0.4-0.1,0.7-0.1,0.7-0.1l-0.1-0.5C83.3,354.7,83,354.7,82.6,354.9z"/>
		</g>
		<g>
			<path class="st1" d="M122.7,353.6c0,0,1.2,0,2.3-0.1c1.2,0,2.3,0,2.3,0l0.1-3.3c0,0-1.2-0.1-2.4-0.1c-1.2-0.1-2.4-0.1-2.4-0.1
				V353.6z"/>
			<path class="st1" d="M132,353.5c0.6,0,1.2,0,1.6,0l0.7,0l0.2-2.8l-0.7-0.1c-0.4,0-1-0.1-1.6-0.2c-1.2-0.1-2.4-0.2-2.4-0.2
				l-0.1,3.1C129.7,353.5,130.9,353.5,132,353.5z"/>
			<path class="st1" d="M139,353.8c1.2,0.1,2.3,0.2,2.3,0.2l0.3-2.3c0,0-1.2-0.2-2.4-0.3s-2.4-0.3-2.4-0.3l-0.2,2.6
				C136.7,353.6,137.8,353.7,139,353.8z"/>
			<path class="st1" d="M144.3,354.2c0.4,0,1,0.1,1.6,0.2c1.2,0.1,2.3,0.3,2.3,0.3l0.3-1.7c0,0-1.2-0.2-2.3-0.5
				c-0.6-0.1-1.2-0.2-1.6-0.3l-0.7-0.1l-0.3,2.1L144.3,354.2z"/>
			<path class="st1" d="M151.3,355.1c0.2,0,0.5,0.1,0.7,0.1s0.6,0.1,0.8,0.2c0.3,0.1,0.6,0.1,0.8,0.2c0.3,0.1,0.5,0.1,0.7,0.1
				l0.5,0.1l0.2,0l0.3-1.2l-0.2-0.1l-0.5-0.1c-0.2-0.1-0.5-0.1-0.7-0.2c-0.3-0.1-0.6-0.2-0.8-0.2c-0.3-0.1-0.6-0.1-0.8-0.2
				c-0.3-0.1-0.5-0.1-0.7-0.2c-0.4-0.1-0.7-0.2-0.7-0.2l-0.3,1.5C150.5,355,150.8,355,151.3,355.1z"/>
			<path class="st1" d="M157.6,356.4c0.1,0,0.3,0.1,0.5,0.1c0.4,0.1,1,0.3,1.5,0.4s1.1,0.4,1.5,0.5l0.5,0.2c0.1,0,0.2,0.1,0.2,0.1
				l0.3-0.6c0,0-0.1,0-0.2-0.1l-0.5-0.2c-0.4-0.2-1-0.4-1.5-0.6c-0.6-0.2-1.1-0.4-1.5-0.6c-0.2-0.1-0.4-0.1-0.5-0.2l-0.2-0.1l-0.3,1
				L157.6,356.4z"/>
			<path class="st1" d="M164.1,358.7l0.2,0.1l0.3,0.1c0.5,0.2,0.9,0.5,1.4,0.8c0.4,0.3,0.8,0.6,1.2,1c0.1,0.1,0.1,0.2,0.2,0.2
				c0.1,0.1,0.1,0.1,0.2,0.2l0.1,0.2l0.1-0.1l-0.1-0.2c0-0.1-0.1-0.1-0.1-0.2c-0.1-0.1-0.1-0.2-0.2-0.2c-0.4-0.4-0.8-0.8-1.2-1.1
				c-0.4-0.3-0.9-0.7-1.3-1l-0.3-0.2l-0.2-0.1l-0.2-0.1l-0.2,0.5L164.1,358.7z"/>
		</g>
	</g>
	<ellipse id="_Path_43" class="st1" cx="77.8" cy="356" rx="4" ry="4.1"/>
	<ellipse id="_Path_44" class="st1" cx="167.4" cy="360.1" rx="4.4" ry="4.4"/>
	<ellipse id="_Path_45" class="st1" cx="99.4" cy="314.6" rx="4.2" ry="4.3"/>
	<ellipse id="_Path_46" class="st1" cx="122.7" cy="351.7" rx="4.3" ry="4.5"/>
	<g>
		<path d="M140.4,295.5c-0.2,0.4-0.4,0.7-0.6,1.1c-0.8,1.5-1.7,3.1-2.5,4.6c-0.7,1.2-1.3,2.5-2,3.7c-0.8,1.4-1.5,2.8-2.3,4.2
			c-0.2,0.3-0.2,0.3,0.2,0.5c0.8,0.3,1.5,0.6,2.3,0.9c0.6,0.2,1.1,0.3,1.7,0.5c0.4,0.1,0.9,0.2,1.3,0.3c0.7,0.1,1.5,0.2,2.2,0.3
			c1,0.1,1.9,0.2,2.9,0.1c1.1-0.1,2.1-0.1,3.2-0.3c1.3-0.2,2.5-0.5,3.7-0.9c0.9-0.3,1.8-0.7,2.6-1.1c0.8-0.4,1.6-0.9,2.5-1.3
			c-2.8-4.3-5.6-8.6-8.3-13c-1,0.6-2.1,1-3.4,1.1C142.7,296.3,141.5,296.1,140.4,295.5z"/>
		<path d="M140.1,284c-2.8-4.3-5.5-8.6-8.3-12.9c-7,4.8-10.7,11.3-10.8,19.9c5.3-0.3,10.6-0.7,15.9-1
			C136.9,287.4,138,285.5,140.1,284z"/>
		<path d="M146.9,283.6c1.1,0.5,1.9,1.3,2.6,2.3c0.6,1,1,2.1,1,3.2c5.3-0.3,10.6-0.7,15.9-1c-0.5-8.4-4.5-14.5-11.9-18.5
			C152,274.4,149.4,279,146.9,283.6z"/>
		<path d="M146.6,286.1c-0.8-0.6-1.8-1-3-1c-0.4,0-1.1,0.1-1.7,0.4c-1.2,0.6-2,1.5-2.5,2.8c-0.3,1-0.3,2,0.1,2.9
			c0.5,1.3,1.5,2.1,2.8,2.6c0.6,0.2,1.2,0.2,1.9,0.1c1.7-0.2,3-1.2,3.7-2.7c0.4-0.9,0.5-1.8,0.3-2.8
			C147.9,287.5,147.4,286.7,146.6,286.1z"/>
	</g>
	<g>
		<path class="st2" d="M135,312.3c-3-1-5.6-2.6-7.9-4.6s-4.1-4.5-5.5-7.5c-1.4-2.9-2.1-6.4-2.1-10.3c0-3.8,0.7-7.2,2.1-10.2
			c1.4-3,3.2-5.4,5.5-7.5c2.3-2,4.9-3.6,7.9-4.6c6-2.1,12.6-2.1,18.7,0c3,1,5.6,2.6,7.9,4.6s4.1,4.5,5.4,7.5c1.3,3,2,6.4,2,10.3
			c0,3.8-0.7,7.2-2,10.2s-3.2,5.4-5.4,7.5c-2.3,2-4.9,3.6-7.9,4.6C147.6,314.4,141,314.4,135,312.3z M152.9,310.4
			c2.8-0.9,5.2-2.3,7.3-4.2c2.1-1.9,3.8-4.1,5-6.8c1.3-2.7,1.9-5.8,1.9-9.4c0-3.5-0.6-6.6-1.9-9.3s-2.9-5-5-6.8
			c-2.1-1.8-4.5-3.2-7.3-4.2c-2.8-0.9-5.7-1.4-8.6-1.4c-2.9,0-5.8,0.5-8.5,1.4c-2.8,0.9-5.2,2.3-7.3,4.2c-2.1,1.9-3.8,4.1-5.1,6.8
			c-1.3,2.7-1.9,5.8-1.9,9.3c0,3.6,0.6,6.7,1.9,9.4c1.3,2.7,3,5,5.1,6.8c2.1,1.9,4.5,3.2,7.3,4.2c2.8,0.9,5.6,1.4,8.5,1.4
			C147.2,311.8,150.2,311.3,152.9,310.4L152.9,310.4z"/>
		<path class="st2" d="M149.7,222.7c-1.4,1-2.6,2.3-3.5,3.9c-0.9,1.6-1.6,3.4-2.2,5.5c-0.5,2-1,4.1-1.5,6.1
			c-0.7,2.9-1.3,5.4-1.7,7.6c-0.5,2-1,4.1-1.7,6c-0.7,1.8-1.6,3.2-2.9,4.3c-1.3,1.1-3,1.6-5.4,1.6c-0.4,0-1.2-0.1-2.3-0.4
			s-2.2-0.9-3.4-2c-1.1-1-2.1-2.6-3-4.7c-0.9-2.1-1.3-5.1-1.3-8.8c0-2.5,0.2-4.9,0.7-7c0.5-2.1,1.3-3.9,2.3-5.4
			c1-1.5,2.5-2.7,4.1-3.5c1.7-0.8,3.7-1.2,6.1-1.2v-2.1c-5.3,0-9.1,1.7-11.5,5.2s-3.6,8.1-3.6,14c0,3.3,0.4,6.1,1.1,8.4
			c0.7,2.3,1.7,4.1,2.8,5.6c1.2,1.4,2.5,2.5,3.9,3.1s2.8,0.9,4,0.9c2.6,0,4.6-0.5,6.2-1.5s2.7-2.6,3.6-4.8c0.6-1.5,1.2-3.2,1.7-5.1
			c0.5-1.9,1-4.2,1.6-6.7c0.5-2.3,1-4.5,1.5-6.7s1.1-4.1,2-5.8c0.8-1.7,1.9-3.1,3.2-4.1c1.3-1.1,3-1.6,5.1-1.6c2,0,3.7,0.5,5.1,1.6
			c1.4,1.1,2.6,2.4,3.4,4.1c0.9,1.6,1.5,3.5,1.9,5.5c0.4,2,0.6,3.9,0.6,5.9c0,6.3-1.2,11-3.7,14.4c-2.5,3.3-6.4,5-11.7,5v2.1
			c5.9,0,10.3-1.8,13-5.4s4.1-9,4.1-16c0-2.3-0.2-4.6-0.7-6.9c-0.5-2.3-1.2-4.4-2.3-6.2c-1-1.8-2.4-3.3-4-4.4
			c-1.7-1.1-3.7-1.7-6.1-1.7C152.9,221.2,151.1,221.7,149.7,222.7z"/>
		<path class="st2" d="M134.6,169.8c-3,0.9-5.7,2.2-8,4.1c-2.3,1.9-4.2,4.3-5.6,7.3c-1.4,3-2.1,6.5-2.1,10.7c0,3,0.6,5.9,1.7,8.7
			c1.1,2.8,2.7,5.3,4.8,7.4c2.1,2.1,4.7,3.8,7.8,5.2c3.1,1.3,6.6,2,10.5,2c3.5,0,6.7-0.4,9.8-1.3c3-0.9,5.7-2.3,7.9-4.1
			c2.2-1.9,4-4.2,5.2-7.2c1.2-2.9,1.8-6.4,1.7-10.6c0-6-1.5-11.1-4.6-15.2c-3-4.1-7.3-6.6-12.8-7.3v2.1c5.2,0.9,9.1,3.2,11.7,6.8
			c2.6,3.7,3.9,8.3,3.9,13.9c0,3.8-0.6,7-1.7,9.6c-1.2,2.6-2.8,4.7-4.8,6.4c-2,1.6-4.4,2.9-7.1,3.7c-2.7,0.8-5.7,1.2-8.9,1.3v-44.3
			C140.8,168.6,137.7,169,134.6,169.8z M142.2,213.1c-3.3-0.2-6.3-0.9-8.9-2.1c-2.6-1.2-4.9-2.7-6.8-4.6c-1.9-1.9-3.3-4.1-4.3-6.6
			c-1-2.5-1.5-5.2-1.5-8.1c0-3.4,0.6-6.5,1.7-9.1c1.1-2.6,2.7-4.8,4.6-6.5c2-1.8,4.2-3.1,6.8-4c2.6-0.9,5.3-1.3,8.2-1.3V213.1z"/>
		<polygon class="st2" points="101.7,107.7 165,107.7 165,107.9 101.7,158.2 101.7,161.3 167.3,161.3 167.3,159.3 104,159.3 
			104,159.1 167.3,108.7 167.3,105.6 101.7,105.6 		"/>
		<path class="st2" d="M134.6,53c-3,0.9-5.7,2.2-8,4.1c-2.3,1.9-4.2,4.3-5.6,7.3c-1.4,3-2.1,6.5-2.1,10.7c0,3,0.6,5.9,1.7,8.7
			c1.1,2.8,2.7,5.3,4.8,7.4c2.1,2.1,4.7,3.8,7.8,5.2c3.1,1.3,6.6,2,10.5,2c3.5,0,6.7-0.4,9.8-1.3c3-0.9,5.7-2.3,7.9-4.1
			c2.2-1.9,4-4.2,5.2-7.2c1.2-2.9,1.8-6.4,1.7-10.6c0-6-1.5-11.1-4.6-15.2c-3-4.1-7.3-6.6-12.8-7.3v2.1c5.2,0.9,9.1,3.2,11.7,6.8
			c2.6,3.7,3.9,8.3,3.9,13.9c0,3.8-0.6,7-1.7,9.6c-1.2,2.6-2.8,4.7-4.8,6.4c-2,1.6-4.4,2.9-7.1,3.7c-2.7,0.8-5.7,1.2-8.9,1.3V51.9
			C140.8,51.7,137.7,52.1,134.6,53z M142.2,96.2c-3.3-0.2-6.3-0.9-8.9-2.1c-2.6-1.2-4.9-2.7-6.8-4.6c-1.9-1.9-3.3-4.1-4.3-6.6
			c-1-2.5-1.5-5.2-1.5-8.1c0-3.4,0.6-6.5,1.7-9.1c1.1-2.6,2.7-4.8,4.6-6.5c2-1.8,4.2-3.1,6.8-4v0c2.6-0.9,5.3-1.3,8.2-1.3V96.2z"/>
		<path class="st2" d="M121.9,24.6H120v12h-14.9v2.1H120v9.7h1.8v-9.7h36.6c3.4,0,5.7-0.8,6.9-2.5c1.3-1.7,1.9-3.7,1.9-6.1
			c0-1.6,0-2.7-0.1-3.2c-0.1-0.6-0.1-1.2-0.2-1.8h-1.8c0.1,0.3,0.2,0.9,0.2,1.8c0,0.8,0,1.8,0,2.8c0,0.8,0,1.7-0.1,2.5
			c-0.1,0.8-0.4,1.6-0.9,2.3c-0.5,0.7-1.2,1.3-2.2,1.7c-1,0.4-2.4,0.7-4.1,0.7h-36.2V24.6z"/>
	</g>
</g>
</svg>
